<?xml version="1.0" ?><svg xmlns="http://www.w3.org/2000/svg" id="Layer_2" viewBox="0 0 32 32"><defs><style>.cls-1{fill:none;}.cls-1,.cls-2{stroke-width:0px;}</style></defs><g id="icons"><g id="Person"><g id="User"><path class="cls-2" d="m16,8c-2.76,0-5,2.24-5,5s2.24,5,5,5,5-2.24,5-5-2.24-5-5-5Zm0,8c-1.65,0-3-1.35-3-3s1.35-3,3-3,3,1.35,3,3-1.35,3-3,3Z"/><rect id="_Transparent_Rectangle_" class="cls-1" width="32" height="32"/><path class="cls-2" d="m16,2c-7.72,0-14,6.28-14,14s6.28,14,14,14,14-6.28,14-14S23.72,2,16,2Zm-6,24.38v-1.38c0-1.65,1.35-3,3-3h6c1.65,0,3,1.35,3,3v1.38c-1.77,1.03-3.81,1.62-6,1.62s-4.23-.6-6-1.62Zm13.99-1.45c-.04-2.72-2.26-4.93-4.99-4.93h-6c-2.73,0-4.95,2.2-4.99,4.93-2.45-2.2-4.01-5.38-4.01-8.93,0-6.62,5.38-12,12-12s12,5.38,12,12c0,3.55-1.55,6.73-4.01,8.93Z"/></g></g></g></svg>