<?xml version="1.0" ?><!DOCTYPE svg  PUBLIC '-//W3C//DTD SVG 1.1//EN'  'http://www.w3.org/Graphics/SVG/1.1/DTD/svg11.dtd'><svg xmlns="http://www.w3.org/2000/svg" xmlns:xlink="http://www.w3.org/1999/xlink" xmlns:serif="http://www.serif.com/" width="100%" height="100%" viewBox="0 0 512 512" version="1.1" xml:space="preserve" style="fill-rule:evenodd;clip-rule:evenodd;stroke-linejoin:round;stroke-miterlimit:2;"><g transform="matrix(1,0,0,1,-562,-1686)"><g id="Icons"><path d="M755.078,2127.18L739.108,2151.64C737.377,2150.25 735.549,2149.11 733.592,2148.22C728.542,2145.91 723.065,2145.01 717.283,2144.62C716.724,2144.52 716.181,2144.88 716.073,2145.44C715.964,2146 716.33,2146.54 716.89,2146.65C720.871,2147.96 724.563,2149.54 727.976,2151.65C724.977,2151.48 721.99,2151.6 719.011,2151.99C708.845,2153.31 698.908,2157.59 689.035,2163.45C688.528,2163.71 688.326,2164.33 688.585,2164.84C688.845,2165.35 689.467,2165.55 689.975,2165.29C698.247,2161.71 706.411,2159.2 714.505,2158.32C718.037,2157.94 721.53,2157.92 725.01,2158.28C724.234,2158.68 723.456,2159.11 722.676,2159.56C720.449,2160.86 718.235,2162.32 716.005,2164.03C713.03,2166.31 710.128,2168.89 707.125,2171.84C706.672,2172.19 706.586,2172.84 706.932,2173.29C707.278,2173.74 707.927,2173.83 708.38,2173.48C711.89,2171.43 715.254,2169.76 718.544,2168.25C722.146,2166.59 725.577,2165.33 728.9,2164.3C731.272,2163.56 733.569,2163.04 735.798,2162.58C737.041,2162.32 738.259,2162.09 739.462,2161.91C739.746,2161.93 740.029,2161.92 740.307,2161.89C740.582,2161.85 740.856,2161.78 741.124,2161.69C741.625,2161.63 742.125,2161.59 742.623,2161.55C745.756,2161.34 748.774,2161.42 751.788,2162.05C756.339,2162.99 760.762,2164.72 765.147,2167.78C765.571,2168.16 766.225,2168.12 766.606,2167.7C766.987,2167.28 766.953,2166.62 766.529,2166.24C763.149,2162.33 759.499,2159.42 755.484,2157.32C753.578,2156.32 751.607,2155.59 749.558,2155.03C748.665,2154.78 747.761,2154.58 746.845,2154.42L764.885,2126.8C766.694,2126.52 768.505,2126.15 770.317,2125.71C778.181,2123.84 786.041,2120.74 793.833,2120.66C798.335,2120.61 802.907,2122.58 807.509,2124.66C812.968,2127.12 818.443,2129.8 823.768,2130.79C828.736,2131.72 834.046,2132.21 839.535,2132.32C835.203,2140.49 830.712,2149.47 827.686,2157.63C826.435,2156.86 825.135,2156.23 823.77,2155.72C819.103,2153.99 814.132,2153.51 808.886,2153.5C808.322,2153.42 807.798,2153.81 807.717,2154.37C807.636,2154.94 808.029,2155.46 808.593,2155.54C812.198,2156.59 815.534,2157.88 818.655,2159.61C814.084,2159.76 809.555,2160.43 805.045,2161.62C797.39,2163.63 789.879,2167.02 782.418,2171.76C781.917,2172.03 781.73,2172.65 782.002,2173.16C782.273,2173.66 782.9,2173.84 783.402,2173.57C791.064,2170.09 798.598,2167.9 806.079,2166.94C809.179,2166.55 812.25,2166.41 815.312,2166.49C814.954,2166.75 814.599,2167.01 814.247,2167.27C812.206,2168.81 810.264,2170.49 808.414,2172.41C805.855,2175.07 803.533,2178.01 801.291,2181.32C800.913,2181.74 800.952,2182.39 801.379,2182.77C801.805,2183.15 802.459,2183.11 802.837,2182.68C806.824,2179.17 810.889,2176.43 815.081,2174.13C816.802,2173.18 818.531,2172.39 820.273,2171.62C822.876,2170.47 825.528,2169.62 828.225,2168.87C828.844,2168.69 829.461,2168.52 830.082,2168.35C830.251,2168.33 830.418,2168.3 830.582,2168.26C830.806,2168.21 831.026,2168.14 831.241,2168.04C831.668,2167.93 832.098,2167.83 832.53,2167.73C834.704,2167.25 836.909,2166.88 839.212,2166.66C844.703,2166.12 850.479,2166.2 856.897,2167.57C857.435,2167.76 858.024,2167.47 858.211,2166.93C858.397,2166.39 858.112,2165.8 857.573,2165.62C853.264,2163.45 849.158,2161.92 845.038,2160.94C843.07,2160.47 841.146,2160.17 839.217,2160C837.927,2159.88 836.651,2159.84 835.387,2159.85C838.772,2150.84 844.017,2140.83 848.697,2132.15C866.466,2131.17 885.081,2126.51 899.309,2119.37C908.618,2114.7 914.487,2108.38 919.724,2101.48C924.501,2095.19 928.711,2088.38 935.018,2082.15C940.341,2076.89 946.921,2073.36 953.439,2069.74C960.63,2065.75 967.752,2061.66 973.481,2055.65C979.237,2049.61 985.534,2030.87 987.388,2022.69C988.35,2018.45 991.174,2010.61 991.607,2004.43C991.856,2000.88 991.3,1997.76 989.887,1995.57C986.949,1991 984.034,1986.24 980.257,1982.31C979.996,1982.04 978.368,1980.4 976.924,1978.96C977.791,1978.33 978.76,1977.74 979.73,1977.14C982.51,1975.42 985.368,1973.73 987.323,1971.81C993.102,1966.12 1009.11,1945.97 1013.42,1939.2C1015.8,1935.44 1016.06,1932.03 1015.96,1928.63C1015.89,1926.46 1015.54,1924.3 1016.4,1922C1017.42,1919.22 1019.21,1916.87 1020.97,1914.48C1023.17,1911.51 1025.35,1908.5 1026.72,1904.99C1029.52,1897.85 1028.41,1890.6 1029.86,1883.29C1030.97,1877.74 1030.12,1871.68 1031.52,1866.27C1032.11,1863.97 1033.29,1861.9 1034.37,1859.78C1035.78,1857.03 1037.07,1854.21 1037.56,1851.07C1038.62,1844.22 1037.11,1836.48 1037.95,1829.37C1038.19,1827.29 1039.31,1825.39 1040.08,1823.42C1040.87,1821.4 1041.42,1819.33 1041.38,1817.15C1041.34,1815.37 1040.32,1813.4 1038.12,1811.85C1036.36,1810.6 1033.56,1809.5 1031.51,1808.57C1032.74,1802.67 1034.18,1794.76 1034.2,1787.38C1034.21,1781.07 1033.14,1775.14 1030.43,1770.82C1029.71,1769.68 1028.09,1768.29 1025.85,1767.12C1022.22,1765.21 1016.79,1763.45 1014.52,1762.82C1011.22,1761.9 1007.74,1762.09 1004.21,1762.36C1001.61,1762.56 998.971,1762.82 996.416,1762.14C994.696,1761.67 992.268,1760.02 989.935,1758.96C987.333,1757.78 984.771,1757.26 982.783,1757.71C975.463,1759.35 969.245,1763.12 963.243,1767.3C957.858,1771.05 952.656,1775.15 946.751,1777.88C944.105,1779.11 941.216,1779.53 938.342,1779.99C934.751,1780.58 931.176,1781.2 927.883,1782.71C923.589,1784.68 920.046,1787.78 916.695,1791.14C913.804,1794.05 911.062,1797.16 907.894,1799.62C905.639,1801.37 902.986,1802.6 900.393,1803.9C897.221,1805.5 894.127,1807.21 891.578,1809.61C881.053,1819.52 873.873,1833.91 864.562,1843.07C845.584,1861.72 812.409,1871.16 787.024,1864.84C781.391,1863.43 775.792,1861.62 770.641,1858.91C751.337,1848.76 749.367,1834.8 749.026,1819.19C748.772,1807.53 749.358,1795.01 745.818,1782.24C739.7,1760.18 724.773,1746.36 707.932,1732.24L707.932,1732.24C706.581,1727.23 704.728,1725.38 702.535,1723.85C700.934,1722.74 698.891,1722 696.34,1719.29C694.974,1717.84 694.806,1715.9 694.364,1714.06C693.855,1711.95 693.223,1709.87 692.02,1708.02C691.598,1707.37 690.678,1706.47 689.16,1705.84C687.183,1705.02 682.987,1704.32 681.817,1703.7C680.671,1703.09 679.481,1701.74 678.228,1700.7C676.722,1699.46 675.14,1698.52 673.646,1698.17C671.597,1697.7 669.151,1698.36 666.728,1699.67C665.882,1700.13 665.023,1700.65 664.18,1701.08C663.835,1701.26 663.259,1701.47 663.045,1701.55C661.771,1701.15 659.082,1699.81 656.95,1699.29C654.864,1698.78 653.034,1698.97 651.844,1699.56C645.023,1702.94 639.989,1708.79 633.982,1712.77C633.617,1712.76 631.599,1712.71 630.432,1712.63C628.248,1712.46 626.148,1712.59 624.561,1713.3C623.655,1713.7 622.371,1714.76 621.818,1716.83C621.257,1718.93 621.253,1723.58 621.187,1724.2C620.971,1726.23 620.244,1727.95 619.516,1729.67C618.531,1731.99 617.523,1734.31 617.013,1736.98C616.788,1738.17 616.871,1739.73 616.913,1740.29C616.62,1740.65 616.056,1740.99 615.432,1741.44C613.461,1742.87 610.709,1744.42 607.931,1746C604.349,1748.02 600.73,1750.08 598.36,1751.9C596.969,1752.97 595.937,1754.03 595.32,1754.96C594.61,1756.04 594.502,1757.1 594.704,1758.1C594.896,1759.05 595.505,1760.52 597.527,1761.31C599.37,1762.04 607.168,1762.46 613.778,1763.07C616.594,1763.34 620.168,1764.08 620.676,1764.19C624.056,1767.03 624.797,1771.12 625.675,1775.15C626.935,1780.92 628.298,1786.65 632.778,1790.84C634.732,1792.67 638.201,1793.8 641.949,1794.24C643.898,1794.47 646.379,1794.63 648.28,1794.72C646.629,1804.86 641.964,1814 636.555,1822.84C630.111,1833.37 622.603,1843.47 617.231,1854.11C602.475,1883.34 596.061,1919.84 599.156,1952.45C601.43,1976.42 614.006,1994.08 624.777,2014.46C630.073,2024.49 634.683,2037.05 643.91,2044.25C649.793,2048.84 656.786,2051.29 663.808,2053.65C669.977,2055.72 676.176,2057.71 681.335,2061.68C684.208,2063.9 686.083,2067.21 687.912,2070.6C690.156,2074.75 692.286,2079.03 695.192,2082.39C702.776,2091.13 713.459,2096.39 722.138,2103.86C729.2,2109.94 734.951,2118.62 743.054,2123.32C747.043,2125.64 751.053,2126.8 755.078,2127.18ZM794.946,2112.68C800.159,2112.91 805.496,2114.97 810.802,2117.37C815.66,2119.56 820.494,2122.04 825.233,2122.93C847.051,2126.99 875.931,2122.15 895.722,2112.22C903.789,2108.18 908.813,2102.63 913.351,2096.65C918.349,2090.06 922.797,2082.98 929.395,2076.46C935.238,2070.69 942.399,2066.72 949.555,2062.75C956.039,2059.15 962.524,2055.55 967.691,2050.13C972.765,2044.8 977.952,2028.14 979.586,2020.92C980.37,2017.46 982.506,2011.51 983.355,2006.17C983.752,2003.67 984.097,2001.35 983.16,1999.89C980.498,1995.76 977.909,1991.41 974.489,1987.85C973.957,1987.3 969.151,1982.64 968.302,1981.56C966.437,1979.19 967.742,1977.04 968.041,1976.61C969.404,1974.64 971.539,1972.9 973.955,1971.33C976.649,1969.57 979.758,1968.03 981.712,1966.11C987.241,1960.67 1002.55,1941.38 1006.66,1934.9C1008.38,1932.2 1007.99,1929.75 1007.9,1927.3C1007.81,1924.66 1007.86,1922.03 1008.89,1919.23C1010.18,1915.74 1012.33,1912.72 1014.54,1909.73C1016.32,1907.32 1018.16,1904.92 1019.27,1902.07C1021.89,1895.39 1020.66,1888.57 1022.02,1881.73C1023.15,1876.03 1022.34,1869.82 1023.77,1864.27C1024.51,1861.4 1025.9,1858.78 1027.25,1856.13C1028.28,1854.13 1029.3,1852.12 1029.66,1849.84C1030.7,1843.08 1029.18,1835.44 1030,1828.43C1030.24,1826.45 1030.93,1824.56 1031.71,1822.69C1032.32,1821.24 1033.08,1819.84 1033.31,1818.32C1032.67,1817.94 1031.55,1817.29 1030.75,1816.93C1028.95,1816.12 1027.13,1815.39 1026.03,1814.77C1023.2,1813.17 1022.86,1810.75 1023.14,1809.47C1024.35,1803.88 1026.18,1795.29 1026.2,1787.36C1026.21,1782.78 1025.68,1778.41 1023.75,1775.23C1023.51,1775.08 1021.94,1774.08 1020.8,1773.55C1017.79,1772.18 1014.07,1771 1012.38,1770.53C1009.96,1769.86 1007.4,1770.14 1004.82,1770.34C1001.31,1770.6 997.774,1770.79 994.34,1769.86C992.578,1769.39 990.158,1768.01 987.751,1766.79C986.894,1766.35 986.039,1765.95 985.231,1765.7C984.968,1765.61 984.742,1765.47 984.53,1765.52C978.248,1766.92 972.968,1770.27 967.816,1773.86C962.047,1777.88 956.438,1782.21 950.112,1785.14C946.803,1786.67 943.217,1787.31 939.622,1787.89C936.743,1788.36 933.856,1788.77 931.216,1789.98C927.794,1791.55 925.036,1794.1 922.365,1796.79C919.234,1799.93 916.233,1803.27 912.801,1805.94C910.142,1808 907.05,1809.51 903.994,1811.05C901.516,1812.3 899.054,1813.56 897.063,1815.43C886.579,1825.31 879.445,1839.65 870.171,1848.77C849.35,1869.24 812.939,1879.54 785.089,1872.6C778.837,1871.04 772.635,1869 766.918,1865.99C747.792,1855.93 742.83,1842.81 741.472,1827.98C740.247,1814.6 742.347,1799.66 738.109,1784.38C732.332,1763.55 717.77,1750.88 701.799,1737.54C701.127,1736.97 700.658,1736.21 700.463,1735.35C699.966,1733.17 699.49,1731.91 698.752,1731.09C697.944,1730.19 696.936,1729.78 695.785,1729.07C694.258,1728.12 692.515,1726.9 690.515,1724.78C688.807,1722.96 687.875,1720.84 687.242,1718.58C686.735,1716.76 686.56,1714.82 685.729,1713.12C685.094,1712.92 683.909,1712.55 683.032,1712.32C680.937,1711.78 678.896,1711.2 678.053,1710.76C676.705,1710.04 675.231,1708.7 673.767,1707.41C673.164,1706.88 672.634,1706.27 672.047,1706.04C671.817,1706.12 671.248,1706.34 670.903,1706.51C670.055,1706.95 669.188,1707.48 668.333,1707.94C665.895,1709.25 663.43,1709.89 661.356,1709.38C660.256,1709.11 655.758,1707.41 654.789,1707.04C648.498,1710.36 643.826,1715.89 638.173,1719.59C636.66,1720.58 634.491,1720.92 632.089,1720.78C631.223,1720.73 630.316,1720.63 629.441,1720.58C629.334,1722.28 629.178,1724.71 629.143,1725.04C628.838,1727.91 627.908,1730.37 626.882,1732.79C626.113,1734.6 625.27,1736.39 624.872,1738.48C624.732,1739.21 624.914,1739.76 624.927,1740.27C624.954,1741.41 624.794,1742.51 624.16,1743.75C623.726,1744.59 622.982,1745.54 621.908,1746.5C620.279,1747.95 617.684,1749.61 614.79,1751.29C612.872,1752.4 610.813,1753.54 608.874,1754.66C611.816,1754.87 614.959,1755.11 617.606,1755.44C621.399,1755.92 624.347,1756.87 625.495,1757.79C630.568,1761.86 632.21,1767.57 633.491,1773.44C634.405,1777.63 634.996,1781.96 638.248,1785.01C638.729,1785.46 639.506,1785.65 640.346,1785.86C641.727,1786.2 643.293,1786.37 644.815,1786.48C648.806,1786.76 652.565,1786.83 653.763,1787.27C653.997,1787.35 654.213,1787.45 654.414,1787.55C655.65,1787.68 656.933,1787.77 658.249,1787.83C661.043,1787.96 663.846,1788.06 666.544,1787.87C670.152,1787.61 673.337,1787.13 675.59,1786.16C675.964,1785.93 676.456,1786.04 676.69,1786.42C676.923,1786.79 676.81,1787.28 676.437,1787.52C673.957,1789.64 669.832,1791.58 665.118,1793.11C662.7,1793.89 660.21,1794.49 657.707,1794.9C657.242,1794.98 656.779,1795.04 656.319,1795.09C654.619,1806.62 649.497,1817.02 643.378,1827.02C637.049,1837.36 629.65,1847.27 624.372,1857.72C610.272,1885.65 604.163,1920.54 607.12,1951.7C609.289,1974.56 621.576,1991.28 631.85,2010.73C636.65,2019.81 640.472,2031.41 648.833,2037.94C653.996,2041.98 660.193,2044 666.355,2046.07C673.37,2048.42 680.35,2050.83 686.216,2055.35C689.951,2058.22 692.573,2062.39 694.95,2066.79C696.911,2070.42 698.696,2074.22 701.235,2077.14C708.565,2085.59 718.97,2090.58 727.358,2097.8C734.058,2103.57 739.382,2111.94 747.07,2116.4C751.94,2119.23 756.864,2119.7 761.803,2119.15C761.979,2119.12 762.157,2119.1 762.337,2119.09C764.377,2118.84 766.42,2118.42 768.462,2117.93C773.909,2116.63 779.367,2114.85 784.802,2113.73C783.626,2112.5 782.48,2111.22 781.342,2109.89C778.338,2106.39 775.559,2102.71 772.828,2098.68C772.535,2098.36 772.565,2097.85 772.894,2097.56C773.223,2097.26 773.728,2097.3 774.02,2097.62C777.607,2100.73 781.188,2103.44 784.858,2106.03C787.114,2107.63 789.361,2109.07 791.618,2110.53C792.736,2111.26 793.836,2111.98 794.946,2112.68Z"/></g></g></svg>