<?xml version="1.0" ?><!DOCTYPE svg  PUBLIC '-//W3C//DTD SVG 1.1//EN'  'http://www.w3.org/Graphics/SVG/1.1/DTD/svg11.dtd'><svg xmlns="http://www.w3.org/2000/svg" xmlns:xlink="http://www.w3.org/1999/xlink" xmlns:serif="http://www.serif.com/" width="100%" height="100%" viewBox="0 0 512 512" version="1.1" xml:space="preserve" style="fill-rule:evenodd;clip-rule:evenodd;stroke-linejoin:round;stroke-miterlimit:2;"><g transform="matrix(1,0,0,1,-562,-1124)"><g id="Icons"><path d="M710.583,1225.76C709.938,1225.84 709.304,1226.07 708.743,1226.47C708.436,1226.69 708.156,1226.96 707.917,1227.26C707.678,1227.57 707.488,1227.9 707.349,1228.26C707.095,1228.9 707.018,1229.57 707.098,1230.21C707.176,1230.86 707.412,1231.49 707.813,1232.05C707.869,1232.13 707.927,1232.21 707.989,1232.28C712.383,1237.73 715.843,1242.75 718.287,1247.35C709.906,1250.29 701.806,1253.67 694.459,1259.05C687.234,1264.33 682.311,1271.66 676.606,1278.37C666.529,1282.39 652.396,1282.48 642.463,1286.21C640.347,1287.01 638.476,1288.03 636.77,1289.22C617.76,1289.24 605.644,1284.79 599.795,1275.61C593.746,1266.1 594.573,1252.11 600.342,1234.36C600.949,1232.49 600.111,1230.46 598.364,1229.56C596.617,1228.67 594.478,1229.17 593.315,1230.75C576.329,1253.87 571.075,1272.75 575.539,1287.49C579.362,1300.11 590.373,1310.13 608.304,1317.31C600.797,1320.81 593.103,1325.71 589.136,1331.82C587.902,1333.72 586.465,1336.89 586.027,1339.92C585.643,1342.58 586.036,1345.12 587.312,1347.07C589.201,1349.94 591.828,1350.91 594.783,1350.87C597.299,1350.83 600.176,1349.67 602.402,1349.43C606.554,1348.97 610.6,1349.89 614.613,1350.36C619.678,1350.95 624.681,1350.93 629.733,1348.42C632.373,1347.11 634.69,1345.26 637.217,1343.76C637.543,1346.61 637.882,1349.45 638.384,1352.28C639.274,1357.28 641.245,1360.47 643.531,1363.52C645.31,1365.9 647.34,1368.15 648.89,1371.67C649.163,1372.29 649.176,1373.17 649.202,1374.16C649.264,1376.53 649.041,1379.35 649.022,1381.95C648.992,1385.96 649.668,1389.52 651.24,1391.51C651.45,1391.78 652.495,1393.09 654.794,1393.07C656.869,1393.05 666.605,1392 669.19,1391.81C674.724,1391.4 679.691,1389.48 684.603,1388.23C688.427,1387.26 692.223,1386.73 696.396,1388.67C702.774,1391.65 707.158,1396.42 711.218,1401.56C715.773,1407.31 719.93,1413.51 725.405,1418.72C733.314,1426.24 742.621,1433.12 751.911,1439C751.757,1442.88 751.865,1446.77 752.41,1450.63C753.415,1457.74 756.381,1464.43 757.957,1471.41C759.623,1478.8 759.596,1486.86 757.964,1494.25C756.749,1499.74 754.468,1505.3 749.886,1508.8C747.515,1510.61 744.78,1511.54 742.325,1513.14C741.641,1513.59 739.544,1515.34 738.99,1516.71C738.477,1517.99 738.531,1519.22 739.024,1520.33C739.258,1520.86 739.654,1521.47 740.351,1521.99C740.897,1522.4 743.338,1523.14 743.338,1523.14C743.338,1523.14 743.247,1523.12 743.219,1523.11C745.127,1523.68 747.139,1524.11 749.125,1524.27C753.71,1524.65 758.29,1524.31 762.886,1524.17C762.593,1526.05 763.801,1527.35 764.5,1527.88C767.565,1530.22 771.764,1531.83 775.423,1532.93C785.628,1536.03 800.457,1533.55 808.203,1525.91C809.541,1524.59 810.495,1523.05 811.326,1521.44C812.029,1520.08 812.561,1518.62 813.565,1517.46C814.053,1517.39 815.249,1517.2 815.851,1517.07C817.407,1516.74 818.61,1516.03 819.388,1515.1C819.995,1514.38 820.728,1512.87 820.216,1510.77C819.787,1509 817.925,1505.45 817.621,1504.79C815.093,1499.23 811.72,1494.25 811.013,1488.04C809.283,1472.84 810.563,1456.81 810.846,1441.54C811.001,1433.16 810.926,1422.83 816.244,1415.8C816.31,1415.72 816.376,1415.63 816.442,1415.55C817.9,1413.92 820.485,1413.8 823.067,1413.77C826.988,1413.72 831.094,1414.4 833.889,1414.58C854.061,1415.82 873.075,1423.21 893.328,1423.09C898.875,1423.05 904.241,1423.6 909.418,1423.32C915.259,1423.02 920.869,1421.73 926.273,1417.98C934.462,1412.3 941.649,1405.17 949.499,1399.03C949.935,1408.4 951.257,1418.27 952.257,1427.14C952.912,1432.94 953.794,1438.82 953.301,1444.68C952.333,1456.17 947.633,1466.63 942.174,1476.64C939.883,1480.84 937.268,1485.34 933.891,1488.77C931.263,1491.43 927.967,1493.04 925.074,1495.33C922.883,1497.06 921.139,1499.27 919.112,1501.18C917.014,1503.15 914.522,1504.7 912.244,1506.46C911.695,1506.88 910.194,1507.82 909.456,1508.57C908.813,1509.22 908.428,1509.9 908.226,1510.45C907.93,1511.26 907.793,1512.34 908.357,1513.59C908.554,1514.02 909.01,1514.73 909.748,1515.4C910.532,1516.11 911.76,1516.92 912.237,1517.16C915.45,1518.73 919.087,1518.91 922.59,1519.03C930.346,1519.28 938.482,1519.6 946.111,1518.09C950.876,1517.15 955.102,1515.93 957.976,1511.67C960.243,1508.31 961.328,1504.42 962.319,1500.46C963.096,1497.37 963.794,1494.22 965.505,1491.47C972.214,1480.68 978.963,1469.83 986.061,1459.29C990,1453.44 995.52,1448.32 997.944,1441.57C998.771,1439.27 999.321,1436.94 999.689,1434.6C1006.22,1451.8 1011.36,1468.42 1004.44,1486.88C1001.02,1496 995.52,1504.64 989.241,1512.06C987.545,1514.07 983.662,1517.48 981.363,1520.65C979.903,1522.66 979.032,1524.68 978.888,1526.39C978.813,1527.27 978.923,1529.49 981.548,1530.58C982.985,1531.18 990.353,1532.31 991.078,1532.39C999.872,1533.4 1010.78,1530.51 1018.39,1526.13C1021.5,1524.34 1023.15,1522.08 1024.47,1519.57C1025.38,1517.84 1026.06,1515.95 1027.4,1514.13C1027.43,1514.09 1027.47,1514.04 1027.52,1513.99C1028,1514.07 1028.83,1514.2 1029.41,1514.25C1030.29,1514.33 1031.24,1514.32 1032.31,1514.12C1033.41,1513.93 1034.82,1513.28 1035.52,1511.36C1035.74,1510.78 1035.93,1509.58 1035.92,1508.16C1035.9,1506.25 1035.64,1503.66 1035.63,1503.39C1035.31,1496.38 1035.11,1487.67 1035.11,1480.65C1035.11,1480.6 1035.11,1480.56 1035.11,1480.52C1034.86,1472.66 1035.4,1464.95 1037.22,1457.28C1039.21,1448.89 1042.55,1441.24 1043.13,1432.51C1043.74,1423.36 1041.7,1414.24 1040.62,1405.21C1039.58,1396.6 1040.11,1387.56 1041.92,1379.09C1044.68,1366.18 1050.2,1353.17 1053.64,1340.05C1054.55,1344.88 1054.99,1349.79 1054.62,1354.93C1053.95,1364.68 1051,1374.03 1049.53,1383.65C1049.15,1386.13 1048.87,1388.63 1048.74,1391.15C1048.52,1395.36 1048.78,1399.58 1049.32,1403.8C1050.55,1413.38 1053.22,1422.94 1054.78,1432.3C1054,1422.89 1052.14,1413.2 1051.7,1403.59C1051.51,1399.51 1051.59,1395.47 1052.12,1391.46C1052.44,1389.08 1052.91,1386.73 1053.45,1384.4C1055.7,1374.74 1059.35,1365.44 1060.76,1355.58C1061.6,1349.55 1061.46,1343.74 1060.64,1337.99C1059.84,1332.44 1058.37,1326.98 1056.61,1321.45C1056.85,1311.49 1053.51,1300.99 1049.2,1292.2C1044.18,1281.96 1037.37,1272.89 1029.35,1264.82C1020.06,1255.46 1010.89,1244.06 998.753,1238.3C983.84,1231.23 964.972,1230.02 948.764,1230.76C923.425,1231.92 898.181,1237.06 872.8,1237C860.716,1236.97 848.646,1235.96 836.736,1233.95C827.111,1232.32 817.719,1229.62 807.904,1229.23C783.477,1228.25 758.403,1234.27 735.119,1241.74C733.33,1239.87 731.329,1238.04 729.113,1236.25C724.642,1232.64 719.237,1229.29 712.927,1226.19C712.801,1226.12 712.672,1226.06 712.541,1226.01C711.901,1225.76 711.229,1225.68 710.583,1225.76ZM1000.47,1412.21C1001.75,1416.09 1002.72,1420.17 1003.89,1423.22C1012.39,1445.4 1020.72,1466.23 1011.93,1489.69C1008.2,1499.66 1002.21,1509.12 995.35,1517.23C993.987,1518.84 991.16,1521.37 988.96,1523.94C990.426,1524.19 991.756,1524.42 991.99,1524.44C999.214,1525.27 1008.15,1522.79 1014.4,1519.19C1016.38,1518.06 1017.11,1516.45 1017.91,1514.81C1018.77,1513.04 1019.62,1511.2 1020.96,1509.39C1023.41,1506.06 1025.54,1505.76 1027.74,1505.94L1027.63,1503.75C1027.31,1496.65 1027.11,1487.83 1027.11,1480.72C1026.84,1472.17 1027.46,1463.78 1029.44,1455.43C1031.33,1447.48 1034.6,1440.26 1035.15,1431.98C1035.72,1423.33 1033.7,1414.71 1032.67,1406.17C1031.53,1396.69 1032.1,1386.73 1034.1,1377.42C1038.01,1359.12 1047.75,1340.67 1048.59,1321.9C1048.98,1313.01 1045.87,1303.59 1042.02,1295.72C1037.39,1286.27 1031.08,1277.9 1023.68,1270.46C1015.01,1261.74 1006.64,1250.89 995.326,1245.53C981.553,1239 964.1,1238.07 949.13,1238.76C923.663,1239.92 898.289,1245.06 872.78,1245C860.255,1244.96 847.745,1243.92 835.402,1241.84C826.112,1240.26 817.057,1237.6 807.584,1237.22C785.111,1236.32 762.086,1241.66 740.527,1248.42C746.707,1257.62 748.311,1267.38 745.853,1276.65C741.67,1292.43 725.289,1307.01 698.847,1314.49C723.513,1305.51 738.486,1290.95 741.436,1275.64C743.123,1266.89 740.587,1258.03 733.579,1249.99C732.301,1249.66 731.213,1248.71 730.774,1247.36C730.73,1247.22 730.693,1247.08 730.664,1246.95C730.202,1246.5 729.726,1246.07 729.235,1245.63C727.716,1244.28 726.062,1242.96 724.269,1241.68C725.476,1243.79 726.507,1245.83 727.36,1247.78C727.467,1247.98 727.558,1248.19 727.632,1248.41L727.642,1248.44C728.579,1250.68 729.28,1252.81 729.743,1254.83C731.103,1260.78 730.514,1265.93 728.114,1270.26C725.779,1274.49 721.654,1278.02 715.456,1280.59C707.445,1283.91 695.668,1285.72 679.814,1285.7C669.627,1289.79 655.329,1289.93 645.275,1293.7C643.477,1294.38 641.937,1295.29 640.546,1296.37C640.261,1296.59 639.95,1296.77 639.621,1296.91C639.214,1297.15 638.813,1297.4 638.405,1297.66C637.626,1298.15 636.869,1298.54 636.083,1299.04C634.433,1300.11 632.943,1301.06 631.263,1302.24L627.685,1304.66L629.304,1300.64C629.852,1299.38 630.358,1298.21 630.895,1297.07C611.626,1296.05 599.397,1289.88 593.047,1279.9C588.832,1273.28 587.145,1264.79 587.91,1254.6C582.155,1266.41 580.58,1276.53 583.196,1285.17C587.084,1298.01 600.163,1306.97 620.912,1313.23C622.583,1313.74 623.734,1315.26 623.757,1317.01C623.781,1318.75 622.671,1320.31 621.014,1320.86C612.951,1323.53 600.816,1328.53 595.844,1336.18C595.212,1337.15 594.491,1338.67 594.111,1340.22C593.894,1341.11 593.574,1342.03 593.998,1342.67C594.181,1342.95 594.496,1342.88 594.784,1342.86C595.29,1342.84 595.813,1342.74 596.339,1342.63C598.158,1342.23 599.993,1341.65 601.527,1341.48C606.288,1340.95 610.938,1341.87 615.541,1342.41C619.093,1342.82 622.627,1343.02 626.17,1341.26C629.349,1339.68 632.057,1337.31 635.23,1335.73C635.896,1335.4 637.72,1334.38 638.886,1334.12C639.97,1333.87 640.909,1333.97 641.603,1334.21C642.357,1334.46 643.197,1334.96 643.841,1335.97C644.087,1336.36 644.365,1336.96 644.545,1337.71C644.792,1338.76 644.901,1340.55 644.943,1340.91C645.327,1344.24 645.674,1347.57 646.261,1350.88C647.03,1355.2 649.049,1357.59 651.092,1360.24C652.876,1362.56 654.705,1365.03 656.21,1368.44C657.295,1370.9 657.227,1375.42 657.072,1379.88C657.013,1381.57 656.972,1383.26 657.119,1384.72L657.13,1384.85C660.614,1384.53 666.842,1383.96 668.608,1383.83C673.651,1383.46 678.156,1381.61 682.632,1380.47C688.197,1379.06 693.707,1378.59 699.779,1381.43C707.353,1384.96 712.67,1390.5 717.491,1396.59C721.816,1402.05 725.72,1407.98 730.918,1412.92C738.999,1420.61 748.618,1427.57 758.098,1433.43L758.121,1433.44L758.159,1433.47C762.574,1436.19 767.357,1438.22 771.516,1441.36C778.578,1446.69 781.712,1453.5 783.223,1461.02C784.57,1467.72 784.549,1475.02 785.293,1482.16C786.077,1489.69 787.764,1498.13 786.328,1505.67C785.024,1512.51 780.517,1517.13 775.51,1521.5C775.381,1521.62 774.7,1522.24 773.859,1523.05C773.772,1523.14 773.681,1523.23 773.586,1523.31C773.461,1523.43 773.333,1523.55 773.204,1523.68C774.713,1524.32 776.292,1524.84 777.745,1525.28C785.463,1527.62 796.729,1525.99 802.587,1520.22C803.819,1519 804.392,1517.4 805.152,1515.91C805.976,1514.31 806.909,1512.78 808.211,1511.47C808.963,1510.72 809.933,1510.17 811.063,1509.83L811.129,1509.81L810.34,1508.1C807.463,1501.78 803.87,1496.01 803.065,1488.94C801.295,1473.4 802.558,1457.01 802.847,1441.39C803.031,1431.46 803.55,1419.36 809.831,1411.01L809.839,1411C809.849,1410.99 809.859,1410.98 809.869,1410.96L809.895,1410.93C810.349,1410.33 810.857,1409.8 811.411,1409.32C813.097,1407.45 814.585,1405.41 815.92,1403.2C817.589,1400.44 819.065,1397.51 820.308,1394.34C823.84,1385.32 825.81,1374.95 826.956,1364.1C827.695,1375.3 827.587,1386.17 825.458,1395.89C824.696,1399.38 823.663,1402.68 822.331,1405.78C826.67,1405.67 831.278,1406.4 834.38,1406.59C854.372,1407.82 873.206,1415.21 893.278,1415.09C898.697,1415.06 903.94,1415.6 908.998,1415.34C913.393,1415.1 917.645,1414.23 921.713,1411.4C929.797,1405.8 936.877,1398.74 944.63,1392.68C946.607,1391.14 948.63,1389.17 950.886,1387.79C951.001,1387.71 951.116,1387.65 951.232,1387.58C952.956,1386.25 954.537,1384.51 955.974,1382.39C957.453,1380.22 958.854,1377.81 960.038,1375.07C962.211,1370.02 963.84,1364.31 964.676,1358.07C965.619,1366.03 965.229,1373.57 963.592,1380.05C962.98,1382.47 962.17,1384.69 961.199,1386.71C961.875,1387.1 962.539,1387.54 963.037,1387.77C965.876,1389.06 968.803,1390 971.773,1390.92C979.231,1393.26 988.717,1395.51 994.469,1401.2C996.717,1403.43 998.426,1406.63 999.756,1410.17C999.968,1410.74 1000.17,1411.31 1000.37,1411.89C1000.4,1412 1000.44,1412.11 1000.47,1412.21ZM759.862,1443.56C759.907,1445.55 760.052,1447.53 760.332,1449.51C761.306,1456.41 764.233,1462.88 765.761,1469.65C767.682,1478.17 767.657,1487.46 765.776,1495.97C764.161,1503.28 760.836,1510.5 754.744,1515.16C754.116,1515.64 753.466,1516.06 752.803,1516.45C758.352,1516.58 763.899,1515.95 769.483,1516.2C769.884,1515.81 770.165,1515.55 770.251,1515.47C773.9,1512.29 777.519,1509.16 778.469,1504.17C779.764,1497.38 778.043,1489.78 777.336,1482.99C776.618,1476.1 776.679,1469.06 775.379,1462.59C774.243,1456.94 772.004,1451.75 766.693,1447.74C764.546,1446.12 762.216,1444.82 759.862,1443.56ZM957.353,1393.74C957.413,1404.3 959.047,1415.97 960.207,1426.25C960.92,1432.57 961.81,1438.97 961.273,1445.35C960.211,1457.96 955.189,1469.49 949.197,1480.47C946.56,1485.31 943.477,1490.44 939.589,1494.38C936.725,1497.29 933.188,1499.11 930.035,1501.6C928.025,1503.19 926.455,1505.25 924.593,1507.01C923.072,1508.44 921.37,1509.68 919.67,1510.91C920.728,1511 921.8,1511 922.848,1511.03C930.008,1511.26 937.521,1511.63 944.564,1510.25C947.189,1509.73 949.76,1509.54 951.343,1507.19C953.089,1504.61 953.796,1501.56 954.56,1498.52C955.538,1494.62 956.558,1490.7 958.712,1487.24C965.472,1476.37 972.274,1465.44 979.426,1454.82C983.003,1449.51 988.214,1444.99 990.415,1438.87C993.32,1430.78 992.277,1422.33 992.597,1413.89C991.652,1411.15 990.544,1408.58 988.841,1406.89C983.955,1402.05 975.719,1400.54 969.384,1398.56C966.101,1397.53 962.871,1396.48 959.733,1395.05C959.195,1394.81 957.932,1394.08 957.353,1393.74ZM721.436,1254.72C713.612,1257.43 706.027,1260.5 699.183,1265.5C694.58,1268.87 691.025,1273.17 687.54,1277.55C696.06,1277.19 703.047,1276.19 708.567,1274.55C714.846,1272.67 719.076,1270.08 721.114,1266.39C722.89,1263.18 722.844,1259.28 721.436,1254.72Z"/></g></g></svg>