<svg xmlns="http://www.w3.org/2000/svg" viewBox="0 0 64 64"><g id="expanded_icons" data-name="expanded icons"><path d="M15.9923,45.2556a1,1,0,0,1-.5557-1.832A14.3487,14.3487,0,0,0,21.84,31.4524a14.26,14.26,0,0,0-5.625-11.4072A1,1,0,1,1,17.43,18.4573a16.2411,16.2411,0,0,1,6.41,12.9951A16.3431,16.3431,0,0,1,16.546,45.0877.9992.9992,0,0,1,15.9923,45.2556Z"/><path d="M24.21,47.2927c-12.6425,0-22.6132-14.1738-23.0322-14.7773a1.0011,1.0011,0,0,1,0-1.14c.419-.6031,10.39-14.7774,23.0322-14.7774,8.7793,0,16.6436,3.1841,20.5928,8.2232,2.8242-4.0357,8.0772-6.57,13.8457-6.57a19.363,19.363,0,0,1,3.5352.3277A1,1,0,0,1,62.21,20.54a11.3652,11.3652,0,0,0-9.1914,10.83A11.3664,11.3664,0,0,0,62.21,42.201a1,1,0,0,1-.0263,1.9609,19.3583,19.3583,0,0,1-3.5352.3271c-5.498,0-10.4912-2.2607-13.4179-5.9882C41.4513,43.8133,33.2608,47.2927,24.21,47.2927ZM3.2413,31.9456C5.2257,34.5633,13.9825,45.2927,24.21,45.2927c9.0782,0,17.1553-3.65,20.0987-9.0839a1.0005,1.0005,0,0,1,.8545-.5235.9542.9542,0,0,1,.88.4824c2.1533,3.5567,6.5576,5.9483,11.4335,6.2813A13.0745,13.0745,0,0,1,51.0186,31.37a13.0719,13.0719,0,0,1,6.46-11.08c-5.1777.3428-9.7051,2.9439-11.7344,6.8223a.9993.9993,0,0,1-.8515.5361.9437.9437,0,0,1-.8868-.477c-3.1416-5.1275-11.0966-8.5728-19.7959-8.5728C13.9825,18.5984,5.2257,29.3274,3.2413,31.9456Z"/><path d="M13.6583,33.5857a3.3328,3.3328,0,1,1,3.333-3.333A3.3368,3.3368,0,0,1,13.6583,33.5857Zm0-4.6655a1.3325,1.3325,0,1,0,1.333,1.3325A1.3337,1.3337,0,0,0,13.6583,28.92Z"/><path d="M34.4073,20.197a1.0006,1.0006,0,0,1-.9365-1.3505,4.2424,4.2424,0,0,0-1.7188-5.07c-2.125-1.2763-8.9834,2.6246-13.1738,5.8028a1,1,0,0,1-1.209-1.5938c1.8643-1.414,11.3633-8.353,15.4121-5.9238a6.1674,6.1674,0,0,1,2.5625,7.4854A1,1,0,0,1,34.4073,20.197Z"/><path d="M26.4835,52.45A5.8632,5.8632,0,0,1,21.99,50.4031,10.7784,10.7784,0,0,1,19.76,46.1853a1,1,0,0,1,1.9258-.541,8.801,8.801,0,0,0,1.7969,3.4268c1.419,1.5908,3.2754,1.8134,5.8428.6963.3623-.1573.7226-.3262,1.083-.4952a12.3214,12.3214,0,0,1,4.6142-1.4511c.1182-.0059.2373-.0078.3575-.0108a3.2417,3.2417,0,0,0,.6963-.0586,2.34,2.34,0,0,0,1.0136-.7109c1.1612-1.208,2.47-3.4619,1.876-4.2441a1,1,0,0,1,1.5938-1.209c1.5859,2.0908-.6329,5.3877-2.0284,6.84a4.2816,4.2816,0,0,1-1.9541,1.26,4.8535,4.8535,0,0,1-1.1572.123l-.3.0088a10.6673,10.6673,0,0,0-3.8633,1.2647c-.3779.1767-.7549.3525-1.1338.5175A9.1364,9.1364,0,0,1,26.4835,52.45Z"/></g></svg>