<svg version="1.1" id="Layer_1" xmlns="http://www.w3.org/2000/svg" xmlns:xlink="http://www.w3.org/1999/xlink" x="0px" y="0px"
	 width="100%" viewBox="0 0 1013 500" enable-background="new 0 0 1013 500" xml:space="preserve">
<path fill="#FFFFFF" opacity="1.000000" stroke="none" 
	d="
M613.000000,501.000000 
	C408.700317,501.000000 204.900635,501.000000 1.050481,501.000000 
	C1.050481,334.394531 1.050481,167.789017 1.050481,1.091757 
	C338.549713,1.091757 676.099487,1.091757 1013.824585,1.091757 
	C1013.824585,167.666519 1013.824585,334.333252 1013.824585,501.000000 
	C880.455627,501.000000 746.977783,501.000000 613.000000,501.000000 
M728.540527,329.910522 
	C728.679810,329.599335 728.819153,329.288116 729.003784,328.994476 
	C729.003784,328.994476 728.969238,328.959473 729.519287,328.663940 
	C730.023071,327.778961 730.526855,326.894012 730.993164,326.007111 
	C730.993164,326.007111 731.015991,326.037140 731.566040,325.587646 
	C731.049805,323.713837 730.533569,321.839996 729.995361,319.996399 
	C729.995361,319.996399 730.031860,319.989502 729.943420,319.450867 
	C729.652222,319.253448 729.360962,319.056061 729.047852,318.946655 
	C729.047852,318.946655 729.132812,318.914978 728.965149,318.328186 
	C728.338623,317.840820 727.712036,317.353485 727.051697,316.947693 
	C727.051697,316.947693 727.139221,316.936066 726.986938,316.403961 
	C726.681396,316.218750 726.375793,316.033539 726.057800,315.942993 
	C726.057800,315.942993 726.152405,315.929932 726.014404,315.392853 
	C725.730652,315.177551 725.446838,314.962250 725.132812,314.877014 
	C725.132812,314.877014 725.263672,314.850464 725.101013,314.240570 
	C724.424072,313.458160 723.747131,312.675751 723.016418,311.969360 
	C723.016418,311.969360 723.105286,311.941681 723.007690,311.312103 
	C722.336304,310.527588 721.664856,309.743073 720.861694,308.493958 
	C720.677002,308.199371 720.411804,308.033264 719.911499,307.473969 
	C719.608643,307.296173 719.305847,307.118378 718.840393,306.473450 
	C718.646057,306.167419 718.367676,306.013641 717.832581,305.538879 
	C717.537842,305.411377 717.243164,305.283875 716.926575,305.041199 
	C716.926575,305.041199 716.817627,305.084534 716.503296,304.622314 
	C715.998413,304.436096 715.493591,304.249908 714.967346,303.997772 
	C714.967346,303.997772 714.906982,304.031799 714.506470,303.287537 
	C714.424194,295.618927 714.341919,287.950348 714.661011,279.496155 
	C714.696228,278.324799 714.731445,277.153412 715.001648,275.175171 
	C715.413025,267.896698 715.824463,260.618195 716.623291,252.568893 
	C716.672424,251.712173 716.721497,250.855453 716.998352,249.109756 
	C716.998352,239.847061 716.998352,230.584366 716.998352,220.741943 
	C700.316467,220.039841 682.758484,219.300873 664.325073,218.235428 
	C661.543030,218.241226 658.760986,218.247009 655.069092,218.019791 
	C638.731140,218.113831 622.393250,218.207855 605.363892,218.186401 
	C604.910278,218.279205 604.456726,218.372025 603.343628,218.336777 
	C601.568359,220.540253 599.793091,222.743729 597.686523,225.717102 
	C597.987854,232.985428 598.069397,240.275574 598.787048,247.502579 
	C598.920959,248.851501 601.557434,250.929306 603.122559,251.007996 
	C619.232422,251.817825 635.357056,252.375214 651.482849,252.810196 
	C659.553040,253.027893 667.633911,252.848145 675.401367,252.848145 
	C675.401367,256.112518 675.401367,258.336853 675.401367,260.823883 
	C673.143494,260.823883 671.324646,260.832611 669.505920,260.822540 
	C648.850098,260.707916 628.194336,260.568787 607.538391,260.484802 
	C599.870789,260.453613 599.492065,260.839081 599.151367,268.674957 
	C598.898254,274.497314 598.521606,280.329926 598.634460,286.149506 
	C598.930847,301.426941 599.364075,316.704315 600.049072,331.967926 
	C600.123047,333.616364 602.235229,336.576721 603.351135,336.552856 
	C612.258545,336.362061 621.153625,335.598083 630.966492,335.178040 
	C634.434692,335.167847 637.907043,335.262878 641.370361,335.127747 
	C651.903198,334.716858 662.432556,334.217072 673.898071,333.859406 
	C679.608704,333.787292 685.319397,333.715179 691.498657,333.814545 
	C691.498657,333.814545 691.964417,333.635162 692.796326,333.813385 
	C694.213074,333.868927 695.629761,333.924469 697.304932,334.503662 
	C697.817017,334.765717 698.329041,335.027802 698.875854,335.148132 
	C698.875854,335.148132 698.732117,335.173492 698.894470,335.706146 
	C699.201477,335.896576 699.508545,336.086975 699.850464,336.153259 
	C699.850464,336.153259 699.725586,336.185486 699.925110,336.720215 
	C700.254639,336.894104 700.584106,337.067993 701.042786,337.661194 
	C701.221497,337.925812 701.470459,338.060577 701.989258,338.605957 
	C702.312134,338.792389 702.635071,338.978851 703.132568,339.594696 
	C703.352539,339.833923 703.624268,339.969116 704.094116,340.517090 
	C704.391113,340.694855 704.688049,340.872620 705.000183,340.999512 
	C705.000183,340.999512 704.949768,341.016083 705.106262,341.522705 
	C705.405945,341.682373 705.705688,341.842010 706.000000,341.999634 
	C706.000000,341.999634 705.997314,341.995422 706.172302,342.465240 
	C706.457947,342.612335 706.743591,342.759430 707.278442,343.438873 
	C707.624329,343.597870 707.970154,343.756897 708.599731,344.369507 
	C709.042419,344.633392 709.485107,344.897308 709.947388,345.069214 
	C709.947388,345.069214 709.860779,345.105896 710.168640,345.687805 
	C711.819580,345.487549 713.470520,345.287292 715.037354,345.043243 
	C715.037354,345.043243 715.064209,345.134186 715.600647,344.999176 
	C715.789429,344.694855 715.978271,344.390564 716.073547,344.070740 
	C716.073547,344.070740 716.090088,344.164124 716.607727,343.983551 
	C716.766174,343.665344 716.924561,343.347107 717.010071,343.013000 
	C717.010071,343.013000 717.046387,343.078217 717.575928,342.853851 
	C717.882019,342.376221 718.188110,341.898590 718.268738,340.951782 
	C718.335693,341.111511 718.402710,341.271271 718.916321,341.225037 
	C719.198914,341.022552 719.369141,340.749908 719.339722,340.060638 
	C719.339722,340.060638 719.469360,340.393555 719.953613,340.071320 
	C720.372681,339.432220 720.791687,338.793091 721.112366,338.124176 
	C721.112366,338.124176 721.140930,338.222839 721.647766,338.014313 
	C721.818542,337.701080 721.989319,337.387848 722.065918,337.061584 
	C722.065918,337.061584 722.081238,337.155518 722.599854,336.978851 
	C722.754822,336.659485 722.909790,336.340118 723.002014,336.005676 
	C723.002014,336.005676 723.033264,336.062073 723.631897,335.792175 
	C724.812500,334.237366 725.993103,332.682556 727.074707,331.082214 
	C727.074707,331.082214 727.113342,331.184174 727.622131,330.985291 
	C727.779419,330.668213 727.936707,330.351166 728.018799,330.022247 
	C728.018799,330.022247 728.041443,330.094940 728.540527,329.910522 
M491.706879,267.808289 
	C491.706879,267.808289 491.911285,267.475494 492.809235,267.585663 
	C502.203156,266.991333 511.597107,266.397003 521.795776,265.855225 
	C522.574341,265.705658 523.352905,265.556061 524.960388,265.577606 
	C529.145447,265.112000 533.330566,264.646393 537.804565,264.249695 
	C537.804565,264.249695 538.015869,264.040894 538.802368,264.166351 
	C543.529358,264.038849 548.256409,263.911346 553.677124,263.855164 
	C554.118408,263.734680 554.559753,263.614227 555.811462,263.607849 
	C557.790527,263.384155 559.778137,262.918640 561.746948,262.987549 
	C565.762085,263.128052 567.402466,261.130737 567.577209,257.373505 
	C567.847046,251.573227 568.188354,245.776291 568.804260,239.277405 
	C568.792480,238.515152 568.780701,237.752914 569.011047,236.189346 
	C569.058044,233.706406 568.969543,231.211853 569.181458,228.743073 
	C569.571655,224.196655 567.708740,222.886673 563.141418,222.985107 
	C539.782837,223.488586 516.416748,223.643509 492.891052,223.005722 
	C492.875977,220.240540 492.703644,217.464981 492.884918,214.712738 
	C493.121490,211.120758 493.638062,207.547226 494.949402,204.152557 
	C516.297058,204.051239 537.644714,203.949905 559.653809,203.982407 
	C560.090149,203.891785 560.526489,203.801147 561.868103,203.835022 
	C564.903870,203.772842 567.939575,203.710663 571.767090,203.832367 
	C573.828674,203.470215 575.890198,203.108063 577.817627,202.769485 
	C577.817627,189.040314 577.909790,175.808060 577.665283,162.582047 
	C577.642578,161.353088 575.564148,159.221436 574.303833,159.114395 
	C567.885254,158.569229 561.421814,158.552536 554.079407,158.187134 
	C551.037598,158.222855 547.995728,158.258560 544.051270,158.049026 
	C529.665710,158.375900 515.280151,158.702789 500.283295,158.764130 
	C499.181183,158.664749 498.079102,158.565369 496.182800,158.169601 
	C495.900818,158.151428 495.618835,158.133270 495.208313,157.417007 
	C495.179169,154.465088 493.580872,153.281982 490.754395,153.383621 
	C477.973755,153.843216 465.193573,154.321152 452.410583,154.705292 
	C448.805786,154.813614 447.283539,156.513519 447.274200,160.625595 
	C447.250092,161.083160 447.225983,161.540726 446.975372,162.848480 
	C446.926697,164.671097 446.839935,166.493622 446.835419,168.316345 
	C446.800964,182.220474 446.782562,196.124664 446.489868,210.672104 
	C446.484711,211.133453 446.479553,211.594788 446.164001,212.940292 
	C446.420166,252.001526 446.657928,291.062897 446.950592,330.123871 
	C446.999359,336.634796 448.293030,337.742279 455.809723,337.804657 
	C457.220093,337.757263 458.630463,337.709869 460.751984,337.876709 
	C461.482941,337.804321 462.213928,337.731934 463.633606,337.800018 
	C464.099731,337.767944 464.565826,337.735840 465.930664,337.971161 
	C470.983673,338.002136 476.044647,338.203491 481.085114,337.967224 
	C482.740082,337.889648 484.341858,336.677551 486.007965,335.978943 
	C486.007965,335.978943 485.976166,335.953674 486.444092,335.422791 
	C487.577362,331.446899 489.494049,327.510376 489.696075,323.487762 
	C490.286987,311.722504 490.194366,299.922882 490.756256,287.303864 
	C490.751892,284.862366 490.747528,282.420898 490.989105,279.109619 
	C491.100891,275.368896 491.212677,271.628204 491.706879,267.808289 
M851.775024,257.018524 
	C853.174011,256.597443 854.572937,256.176392 856.719299,255.836655 
	C857.200500,255.718964 857.681763,255.601288 858.693665,255.649460 
	C859.034058,255.528549 859.374390,255.407639 860.438965,255.636276 
	C860.970581,255.662643 861.502258,255.689011 862.746521,255.961349 
	C863.497131,256.006134 864.247803,256.050934 865.143616,256.266174 
	C865.143616,256.266174 865.363953,256.225830 865.809631,256.758270 
	C866.871460,257.170044 867.933289,257.581787 869.272644,258.659546 
	C869.415039,258.853363 869.557373,259.047211 869.444763,260.101471 
	C869.434326,283.898315 869.528137,307.696075 869.312378,331.491058 
	C869.275696,335.533722 870.799133,336.859772 874.407227,336.876831 
	C884.054810,336.922394 893.703003,337.056641 903.348938,336.956970 
	C904.457458,336.945526 905.552917,335.677429 906.853394,334.341766 
	C906.841431,333.891266 906.829529,333.440735 907.014160,332.147644 
	C907.550293,317.424927 908.086426,302.702179 908.811584,287.161377 
	C908.781616,285.764160 908.751709,284.366913 908.963562,282.076965 
	C909.128723,277.756378 909.358826,273.437164 909.447205,269.114990 
	C909.742981,254.655960 910.091858,240.195938 910.099121,225.736160 
	C910.099854,224.211899 908.177246,221.581024 906.806091,221.330704 
	C891.019531,218.448761 875.195557,215.456818 858.305908,218.218994 
	C857.871155,218.407898 857.436340,218.596802 856.283020,218.723526 
	C851.187317,218.921463 845.670471,224.759033 841.095398,217.602005 
	C841.017578,217.480194 840.470642,217.687469 840.141907,217.692581 
	C828.103271,217.880173 816.064514,218.061966 803.114136,218.148361 
	C801.004944,218.343399 798.895691,218.538422 796.076538,218.500549 
	C791.394470,219.474594 786.712341,220.448639 781.619629,221.093246 
	C781.451660,221.042435 781.283691,220.991623 780.899170,220.273300 
	C778.940125,216.901337 775.994995,215.628128 772.140503,215.781174 
	C766.329163,216.011932 760.501160,215.858948 754.693787,216.145111 
	C748.018250,216.474045 747.322998,217.342743 747.395203,223.789398 
	C747.579651,240.245193 747.669617,256.702759 747.975769,273.156311 
	C748.303284,290.758850 748.835083,308.357635 749.158936,326.864258 
	C749.232178,329.896973 749.305359,332.929688 749.301331,336.755707 
	C749.778687,337.154022 750.251221,337.893829 750.734009,337.900574 
	C761.514343,338.050781 772.295776,338.120209 783.827820,338.426453 
	C784.860474,338.353638 785.893127,338.280823 787.515076,338.494659 
	C788.536133,337.387817 790.437256,336.287750 790.445801,335.173126 
	C790.567078,319.451599 790.430969,303.728088 790.734802,287.138916 
	C790.758545,279.429474 790.782227,271.720001 791.017029,263.288330 
	C791.678772,261.190491 792.340515,259.092651 793.000000,256.999817 
	C793.000000,256.999817 792.993652,256.997742 793.854370,257.014984 
	C797.248413,256.454071 800.627747,255.570602 804.040283,255.415176 
	C808.159241,255.227585 810.080933,257.080902 810.060974,261.776886 
	C809.964844,284.414520 810.262329,307.053802 810.414856,329.692535 
	C810.432617,332.330780 810.417297,334.969238 810.417297,338.092529 
	C823.557983,338.092529 836.275940,338.092529 849.570190,338.092529 
	C849.570190,335.640625 849.569824,333.674988 849.570312,331.709351 
	C849.575562,309.730072 849.524475,287.750488 849.654419,265.771942 
	C849.671570,262.870972 850.612000,259.975464 851.047607,257.043182 
	C851.047607,257.043182 851.050781,257.127533 851.775024,257.018524 
M180.577118,336.003571 
	C184.896423,335.772766 189.225952,335.659393 193.532684,335.284149 
	C200.301529,334.694427 203.764938,331.058044 203.919479,324.155579 
	C204.303146,307.021698 204.698227,289.885620 204.809616,272.748596 
	C205.029327,238.950485 205.065979,205.151154 205.164719,171.352295 
	C205.188950,163.057907 201.706436,159.157318 193.335236,159.075623 
	C170.200500,158.849854 147.053925,159.240860 123.932076,158.629761 
	C116.376534,158.430069 114.090157,162.413361 114.094505,169.125824 
	C114.100204,177.910736 115.027870,186.693298 115.098503,195.480576 
	C115.138611,200.469925 117.210869,202.348831 121.941849,201.933975 
	C122.930038,201.847305 123.937935,201.956604 124.935204,202.006546 
	C137.514053,202.636292 150.092606,203.271729 163.587219,203.951874 
	C162.841080,233.611588 162.111664,262.606842 161.386002,291.452881 
	C143.177826,292.297791 125.824608,293.102997 108.010727,293.929596 
	C108.010727,289.985443 107.997040,286.363922 108.012817,282.742523 
	C108.186310,242.935562 108.340919,203.128448 108.589424,163.321945 
	C108.607697,160.394745 107.910164,158.479523 104.795212,157.993713 
	C100.053230,157.254135 95.334579,155.997101 90.574188,155.821228 
	C81.190025,155.474579 71.784012,155.719086 62.361126,155.719086 
	C62.262028,157.010498 62.163181,157.669708 62.167797,158.328186 
	C62.493618,204.788681 62.717758,251.250336 63.234913,297.708740 
	C63.371845,310.009766 64.343117,322.304871 65.067650,334.594635 
	C65.444214,340.982208 67.182823,342.784271 73.189285,342.886963 
	C82.848419,343.052124 92.512321,343.027710 102.172783,342.934753 
	C103.705116,342.919983 106.464722,342.315430 106.564087,341.664215 
	C107.404808,336.154297 111.711411,337.716522 114.764191,337.622864 
	C136.376297,336.959747 157.995255,336.519043 180.577118,336.003571 
M350.659180,346.180176 
	C355.525879,340.483765 360.383545,334.779572 365.263092,329.094208 
	C367.703766,326.250519 367.715118,323.475800 365.291840,320.588348 
	C361.981934,316.644470 359.427521,311.625061 355.332245,308.886566 
	C349.382477,304.907867 349.084686,299.846252 349.519348,293.934631 
	C349.689972,291.613892 349.545776,289.270905 349.693878,286.947540 
	C351.065704,265.423859 352.470123,243.902283 353.910034,221.686401 
	C349.755890,221.686401 346.130829,221.765839 342.510101,221.673996 
	C309.064880,220.825729 275.621765,219.886139 242.174347,219.137909 
	C236.442169,219.009689 233.199387,221.725754 232.991867,227.387161 
	C232.737762,234.319016 233.321915,241.315323 234.088882,248.223236 
	C234.247818,249.654770 236.742691,251.867065 238.255585,251.947861 
	C254.031616,252.790375 269.824127,253.373215 285.618103,253.810516 
	C294.039795,254.043701 302.473267,253.851883 310.692078,253.851883 
	C310.692078,256.964508 310.692078,259.228119 310.692078,261.629364 
	C309.762238,261.713715 309.120117,261.826233 308.478699,261.822235 
	C290.655579,261.711182 272.832550,261.578766 255.009399,261.473541 
	C250.010361,261.444031 245.010773,261.472076 240.011658,261.505219 
	C236.733292,261.526978 234.721725,262.651917 234.761108,266.490204 
	C234.805389,270.806061 234.142395,275.125824 234.106934,279.446503 
	C233.962418,297.052185 231.759644,314.682709 234.972809,332.257507 
	C235.696564,336.216248 237.122177,338.229736 241.427124,337.883911 
	C250.344162,337.167633 259.273010,336.470062 268.210632,336.165924 
	C285.498840,335.577576 302.815857,335.624176 320.081879,334.687683 
	C328.496613,334.231354 335.371643,335.808136 340.667358,342.683960 
	C341.853485,344.224030 343.550018,345.601837 345.308838,346.395935 
	C346.680145,347.015045 348.512573,346.612823 350.659180,346.180176 
z"/>
<path fill="#024BAE" opacity="1.000000" stroke="none" 
	d="
M180.094574,336.005493 
	C157.995255,336.519043 136.376297,336.959747 114.764191,337.622864 
	C111.711411,337.716522 107.404808,336.154297 106.564087,341.664215 
	C106.464722,342.315430 103.705116,342.919983 102.172783,342.934753 
	C92.512321,343.027710 82.848419,343.052124 73.189285,342.886963 
	C67.182823,342.784271 65.444214,340.982208 65.067650,334.594635 
	C64.343117,322.304871 63.371845,310.009766 63.234913,297.708740 
	C62.717758,251.250336 62.493618,204.788681 62.167797,158.328186 
	C62.163181,157.669708 62.262028,157.010498 62.361126,155.719086 
	C71.784012,155.719086 81.190025,155.474579 90.574188,155.821228 
	C95.334579,155.997101 100.053230,157.254135 104.795212,157.993713 
	C107.910164,158.479523 108.607697,160.394745 108.589424,163.321945 
	C108.340919,203.128448 108.186310,242.935562 108.012817,282.742523 
	C107.997040,286.363922 108.010727,289.985443 108.010727,293.929596 
	C125.824608,293.102997 143.177826,292.297791 161.386002,291.452881 
	C162.111664,262.606842 162.841080,233.611588 163.587219,203.951874 
	C150.092606,203.271729 137.514053,202.636292 124.935204,202.006546 
	C123.937935,201.956604 122.930038,201.847305 121.941849,201.933975 
	C117.210869,202.348831 115.138611,200.469925 115.098503,195.480576 
	C115.027870,186.693298 114.100204,177.910736 114.094505,169.125824 
	C114.090157,162.413361 116.376534,158.430069 123.932076,158.629761 
	C147.053925,159.240860 170.200500,158.849854 193.335236,159.075623 
	C201.706436,159.157318 205.188950,163.057907 205.164719,171.352295 
	C205.065979,205.151154 205.029327,238.950485 204.809616,272.748596 
	C204.698227,289.885620 204.303146,307.021698 203.919479,324.155579 
	C203.764938,331.058044 200.301529,334.694427 193.532684,335.284149 
	C189.225952,335.659393 184.896423,335.772766 180.094574,336.005493 
z"/>
<path fill="#034BAC" opacity="1.000000" stroke="none" 
	d="
M869.699707,259.241028 
	C869.557373,259.047211 869.415039,258.853363 869.061829,257.940155 
	C867.688660,256.889099 866.526306,256.557465 865.363953,256.225830 
	C865.363953,256.225830 865.143616,256.266174 864.920532,255.921478 
	C863.809570,255.622986 862.921692,255.669174 862.033875,255.715378 
	C861.502258,255.689011 860.970581,255.662643 859.930481,255.364899 
	C859.002319,255.223557 858.582642,255.353577 858.162964,255.483597 
	C857.681763,255.601288 857.200500,255.718964 856.093262,255.574677 
	C853.995056,255.917648 852.522888,256.522614 851.050781,257.127563 
	C851.050781,257.127533 851.047607,257.043182 850.700378,257.089355 
	C849.572815,259.694458 848.136475,262.247986 848.115417,264.813110 
	C847.935669,286.772156 847.862793,308.735107 848.122314,330.692566 
	C848.183411,335.863281 846.456543,337.324158 841.510925,337.104797 
	C833.540955,336.751282 825.534790,336.782227 817.561890,337.101501 
	C813.288940,337.272552 811.710999,336.203308 811.878235,331.626434 
	C812.236328,321.823792 812.107788,311.997253 811.959351,302.183777 
	C811.743530,287.914185 811.371460,273.646454 810.946716,259.381470 
	C810.907043,258.048492 810.401611,256.206635 809.448792,255.514023 
	C805.305725,252.502411 797.315857,253.378967 792.993652,256.997742 
	C792.993652,256.997742 793.000000,256.999817 792.642822,257.043091 
	C791.792419,259.394409 791.299194,261.702484 790.805969,264.010559 
	C790.782227,271.720001 790.758545,279.429474 790.213989,287.734863 
	C789.464600,289.920563 789.044556,291.509430 789.037659,293.100098 
	C788.983154,305.676300 789.117249,318.254578 788.913208,330.827698 
	C788.873169,333.297913 787.619690,335.748413 786.925781,338.208008 
	C785.893127,338.280823 784.860474,338.353638 783.179077,337.984222 
	C776.744812,337.364197 770.955811,337.258881 765.174683,336.987122 
	C759.904907,336.739380 754.643616,336.311127 749.378601,335.962402 
	C749.305359,332.929688 749.232178,329.896973 749.456665,326.078857 
	C749.517151,307.419861 749.200195,289.546875 749.066040,271.672516 
	C748.943665,255.361465 748.905457,239.046951 749.186340,222.740082 
	C749.213989,221.131104 751.538879,218.432220 753.122681,218.164749 
	C762.635498,216.558212 772.317566,214.813477 781.115784,220.940826 
	C781.283691,220.991623 781.451660,221.042435 781.904175,221.579163 
	C787.054626,220.954544 791.920532,219.843979 796.786499,218.733429 
	C798.895691,218.538422 801.004944,218.343399 803.900391,218.440460 
	C813.975891,218.818863 823.268677,218.781311 832.552551,219.051514 
	C836.340576,219.161758 840.974365,217.217224 843.273743,222.423019 
	C843.408386,222.727661 844.239929,222.999664 844.617554,222.879547 
	C848.760437,221.561600 852.877502,220.162643 857.001587,218.785690 
	C857.436340,218.596802 857.871155,218.407898 858.993774,218.480316 
	C863.792419,218.512131 867.951538,217.769165 872.004456,218.151886 
	C883.018982,219.192032 894.006348,220.586731 904.954956,222.181000 
	C906.433960,222.396362 908.746948,224.540924 908.773682,225.831482 
	C908.948608,234.290710 908.478821,242.760406 908.455139,251.227341 
	C908.425537,261.807800 908.622620,272.388885 908.721802,282.969696 
	C908.751709,284.366913 908.781616,285.764160 908.354614,287.704346 
	C907.599426,289.976715 907.171692,291.695496 907.028809,293.437622 
	C906.691284,297.551575 906.259766,301.677765 906.279663,305.797028 
	C906.323303,314.862061 906.622559,323.925903 906.817566,332.990234 
	C906.829529,333.440735 906.841431,333.891266 906.348022,334.670105 
	C894.324158,336.601105 882.844116,336.660950 870.990234,334.617340 
	C870.990234,332.341187 870.990173,330.539307 870.990234,328.737396 
	C870.990967,307.438049 871.023865,286.138550 870.936218,264.839569 
	C870.928589,262.971741 870.130615,261.107147 869.699707,259.241028 
z"/>
<path fill="#024BAC" opacity="1.000000" stroke="none" 
	d="
M490.743164,279.979401 
	C490.747528,282.420898 490.751892,284.862366 490.307373,287.966492 
	C489.568970,294.797760 489.476746,300.983521 488.944427,307.131134 
	C488.111420,316.752197 486.980774,326.347473 485.976196,335.953674 
	C485.976166,335.953674 486.007965,335.978943 485.567139,335.995300 
	C482.187286,336.346832 479.254425,336.757294 476.307678,336.998230 
	C472.554962,337.305145 468.791046,337.474884 465.031952,337.703766 
	C464.565826,337.735840 464.099731,337.767944 463.092957,337.535767 
	C461.715118,337.401855 460.877991,337.532166 460.040833,337.662476 
	C458.630463,337.709869 457.220093,337.757263 455.183533,337.449493 
	C448.621094,336.075745 447.795441,332.334961 447.844269,326.836731 
	C448.127930,294.909424 448.058105,262.977875 447.907257,231.048691 
	C447.877319,224.715714 446.974640,218.386887 446.474396,212.056137 
	C446.479553,211.594788 446.484711,211.133453 446.935181,210.156403 
	C447.576996,209.024689 447.943420,208.409134 447.945038,207.792618 
	C447.982452,193.460098 447.994934,179.127441 447.951843,164.794998 
	C447.949036,163.862015 447.463074,162.930496 447.201843,161.998291 
	C447.225983,161.540726 447.250092,161.083160 447.765076,160.243958 
	C450.221680,157.725403 451.879974,155.786148 455.505615,155.818481 
	C465.544678,155.908081 475.591553,155.348938 485.631775,154.955200 
	C489.301666,154.811264 492.819580,154.850159 495.336853,158.115097 
	C495.618835,158.133270 495.900818,158.151428 496.571228,158.472519 
	C496.959686,158.775436 497.031525,159.077042 497.307495,159.348618 
	C500.519073,160.054657 503.474091,160.959274 506.386688,160.838730 
	C516.641846,160.414291 526.883301,159.651733 537.127869,158.985519 
	C539.740479,158.815643 542.345459,158.527878 544.953918,158.294281 
	C547.995728,158.258560 551.037598,158.222855 554.659424,158.633881 
	C560.468872,159.390289 565.696472,159.734222 570.928223,159.996292 
	C573.878418,160.144073 576.009705,160.754593 576.069763,164.503510 
	C576.205078,172.964218 576.667969,181.419693 576.998962,189.877243 
	C577.216736,195.441742 577.972168,201.240234 570.975342,203.648499 
	C567.939575,203.710663 564.903870,203.772842 561.226074,203.577393 
	C560.057617,203.212234 559.531250,203.104736 558.535889,202.994690 
	C538.448059,202.993301 518.829041,202.970215 499.210358,203.037720 
	C497.483917,203.043655 495.759491,203.642365 494.034180,203.965744 
	C493.638062,207.547226 493.121490,211.120758 492.884918,214.712738 
	C492.703644,217.464981 492.875977,220.240540 493.243225,223.776749 
	C495.563660,224.692139 497.531738,224.959335 499.500153,224.962021 
	C520.765015,224.991074 542.030518,225.060669 563.294189,224.899887 
	C567.025269,224.871689 568.361084,225.979080 568.096313,229.711288 
	C567.926147,232.109772 568.518494,234.562332 568.768982,236.990662 
	C568.780701,237.752914 568.792480,238.515152 568.303101,239.772903 
	C567.204468,245.758041 566.822571,251.285324 565.874939,256.713806 
	C565.599365,258.292419 563.977356,260.078796 562.491699,260.900482 
	C560.213562,262.160431 557.518921,262.667267 555.001038,263.493744 
	C554.559753,263.614227 554.118408,263.734680 553.003784,263.572906 
	C547.558899,263.540710 542.787354,263.790802 538.015869,264.040894 
	C538.015869,264.040894 537.804565,264.249695 537.167053,264.147339 
	C532.396851,264.498779 528.264160,264.952637 524.131470,265.406494 
	C523.352905,265.556061 522.574341,265.705658 521.065247,265.579895 
	C515.060852,265.216736 509.764038,264.791382 504.520294,265.147247 
	C500.284149,265.434692 496.111877,266.664001 491.911285,267.475494 
	C491.911285,267.475494 491.706879,267.808289 491.204681,268.042358 
	C490.716064,272.177429 490.729614,276.078430 490.743164,279.979401 
z"/>
<path fill="#024BAE" opacity="1.000000" stroke="none" 
	d="
M350.399628,346.422302 
	C348.512573,346.612823 346.680145,347.015045 345.308838,346.395935 
	C343.550018,345.601837 341.853485,344.224030 340.667358,342.683960 
	C335.371643,335.808136 328.496613,334.231354 320.081879,334.687683 
	C302.815857,335.624176 285.498840,335.577576 268.210632,336.165924 
	C259.273010,336.470062 250.344162,337.167633 241.427124,337.883911 
	C237.122177,338.229736 235.696564,336.216248 234.972809,332.257507 
	C231.759644,314.682709 233.962418,297.052185 234.106934,279.446503 
	C234.142395,275.125824 234.805389,270.806061 234.761108,266.490204 
	C234.721725,262.651917 236.733292,261.526978 240.011658,261.505219 
	C245.010773,261.472076 250.010361,261.444031 255.009399,261.473541 
	C272.832550,261.578766 290.655579,261.711182 308.478699,261.822235 
	C309.120117,261.826233 309.762238,261.713715 310.692078,261.629364 
	C310.692078,259.228119 310.692078,256.964508 310.692078,253.851883 
	C302.473267,253.851883 294.039795,254.043701 285.618103,253.810516 
	C269.824127,253.373215 254.031616,252.790375 238.255585,251.947861 
	C236.742691,251.867065 234.247818,249.654770 234.088882,248.223236 
	C233.321915,241.315323 232.737762,234.319016 232.991867,227.387161 
	C233.199387,221.725754 236.442169,219.009689 242.174347,219.137909 
	C275.621765,219.886139 309.064880,220.825729 342.510101,221.673996 
	C346.130829,221.765839 349.755890,221.686401 353.910034,221.686401 
	C352.470123,243.902283 351.065704,265.423859 349.693878,286.947540 
	C349.545776,289.270905 349.689972,291.613892 349.519348,293.934631 
	C349.084686,299.846252 349.382477,304.907867 355.332245,308.886566 
	C359.427521,311.625061 361.981934,316.644470 365.291840,320.588348 
	C367.715118,323.475800 367.703766,326.250519 365.263092,329.094208 
	C360.383545,334.779572 355.525879,340.483765 350.399628,346.422302 
M301.382263,292.124176 
	C291.727966,292.124176 282.073669,292.124176 272.315338,292.124176 
	C272.315338,296.087646 272.315338,299.519836 272.315338,303.271820 
	C283.516937,303.271820 294.533539,303.271820 306.027435,303.271820 
	C306.027435,300.680939 305.843018,298.221741 306.074280,295.802338 
	C306.360901,292.803528 304.864319,292.003204 301.382263,292.124176 
z"/>
<path fill="#034BAC" opacity="1.000000" stroke="none" 
	d="
M630.052490,335.009766 
	C621.153625,335.598083 612.258545,336.362061 603.351135,336.552856 
	C602.235229,336.576721 600.123047,333.616364 600.049072,331.967926 
	C599.364075,316.704315 598.930847,301.426941 598.634460,286.149506 
	C598.521606,280.329926 598.898254,274.497314 599.151367,268.674957 
	C599.492065,260.839081 599.870789,260.453613 607.538391,260.484802 
	C628.194336,260.568787 648.850098,260.707916 669.505920,260.822540 
	C671.324646,260.832611 673.143494,260.823883 675.401367,260.823883 
	C675.401367,258.336853 675.401367,256.112518 675.401367,252.848145 
	C667.633911,252.848145 659.553040,253.027893 651.482849,252.810196 
	C635.357056,252.375214 619.232422,251.817825 603.122559,251.007996 
	C601.557434,250.929306 598.920959,248.851501 598.787048,247.502579 
	C598.069397,240.275574 597.987854,232.985428 598.151489,225.205627 
	C600.411987,222.617706 602.207581,220.541275 604.003113,218.464844 
	C604.456726,218.372025 604.910278,218.279205 606.044067,218.476562 
	C622.539490,218.837250 638.354614,218.915848 654.169861,218.947357 
	C654.772400,218.948547 655.375916,218.494644 655.978943,218.252808 
	C658.760986,218.247009 661.543030,218.241226 665.052246,218.596085 
	C666.879639,219.299026 667.966980,219.887970 669.082031,219.946121 
	C683.088501,220.676544 697.096313,221.397705 711.109863,221.971497 
	C716.984863,222.212021 716.940735,222.671448 716.544617,228.329132 
	C716.041809,235.511856 716.644592,242.771988 716.770630,249.998734 
	C716.721497,250.855453 716.672424,251.712173 716.314148,253.268478 
	C715.592224,261.306061 715.179443,268.644073 714.766663,275.982056 
	C714.731445,277.153412 714.696228,278.324799 714.319580,280.161194 
	C711.292786,288.158691 713.520508,295.639496 713.377136,303.047668 
	C713.370911,303.365723 714.374023,303.703308 714.906982,304.031799 
	C714.906982,304.031799 714.967346,303.997772 715.128357,304.263000 
	C715.798767,304.713684 716.308228,304.899109 716.817627,305.084534 
	C716.817627,305.084534 716.926575,305.041199 717.058838,305.301575 
	C717.408264,305.810120 717.679626,305.960175 718.005188,306.012115 
	C718.367676,306.013641 718.646057,306.167419 719.020508,306.951904 
	C719.489197,307.618805 719.777710,307.807220 720.066223,307.995605 
	C720.411804,308.033264 720.677002,308.199371 720.924805,309.091187 
	C721.693665,310.439484 722.399475,311.190582 723.105286,311.941681 
	C723.105286,311.941681 723.016418,311.969360 723.038696,312.276337 
	C723.795166,313.339020 724.529419,314.094757 725.263672,314.850464 
	C725.263672,314.850464 725.132812,314.877014 725.194458,315.091736 
	C725.554932,315.514252 725.853638,315.722107 726.152405,315.929932 
	C726.152405,315.929932 726.057800,315.942993 726.146362,316.157471 
	C726.536377,316.560028 726.837769,316.748047 727.139221,316.936066 
	C727.139221,316.936066 727.051697,316.947693 727.076538,317.251129 
	C727.778564,318.008057 728.455688,318.461517 729.132812,318.914978 
	C729.132812,318.914978 729.047852,318.946655 729.129272,319.157196 
	C729.484375,319.574982 729.758118,319.782257 730.031860,319.989502 
	C730.031860,319.989502 729.995361,319.996399 730.000854,320.369751 
	C730.342957,322.507782 730.679443,324.272461 731.015991,326.037140 
	C731.015991,326.037140 730.993164,326.007111 730.666748,326.052002 
	C729.883240,327.051086 729.426270,328.005280 728.969238,328.959473 
	C728.969238,328.959473 729.003784,328.994476 728.756592,329.105103 
	C728.353394,329.508789 728.197449,329.801880 728.041443,330.094940 
	C728.041443,330.094940 728.018799,330.022247 727.805298,330.132629 
	C727.432312,330.556732 727.272827,330.870453 727.113342,331.184174 
	C727.113342,331.184174 727.074707,331.082214 726.756042,331.095367 
	C725.302673,332.759705 724.167969,334.410889 723.033264,336.062073 
	C723.033264,336.062073 723.002014,336.005676 722.788574,336.121277 
	C722.410461,336.543091 722.245850,336.849304 722.081238,337.155518 
	C722.081238,337.155518 722.065918,337.061584 721.847717,337.159302 
	C721.466614,337.578979 721.303772,337.900909 721.140930,338.222839 
	C721.140930,338.222839 721.112366,338.124176 720.792725,338.137329 
	C720.138550,338.898193 719.803955,339.645874 719.469360,340.393555 
	C719.469360,340.393555 719.339722,340.060638 719.077881,340.222900 
	C718.700623,340.733795 718.585205,341.082428 718.469727,341.431061 
	C718.402710,341.271271 718.335693,341.111511 718.047241,341.172363 
	C717.565979,341.954681 717.306213,342.516449 717.046387,343.078217 
	C717.046387,343.078217 717.010071,343.013000 716.798828,343.126953 
	C716.421692,343.548645 716.255859,343.856384 716.090088,344.164124 
	C716.090088,344.164124 716.073547,344.070740 715.857178,344.155426 
	C715.448608,344.538116 715.256409,344.836151 715.064209,345.134186 
	C715.064209,345.134186 715.037354,345.043243 714.641479,345.029846 
	C712.783997,345.046234 711.322388,345.076050 709.860779,345.105896 
	C709.860779,345.105896 709.947388,345.069214 709.849487,344.851929 
	C709.273071,344.395081 708.794556,344.155487 708.316040,343.915894 
	C707.970154,343.756897 707.624329,343.597870 707.043945,342.958649 
	C706.600037,342.214508 706.329285,342.053497 705.997314,341.995422 
	C705.997314,341.995422 706.000000,341.999634 705.897827,341.769531 
	C705.513672,341.364990 705.231689,341.190552 704.949768,341.016083 
	C704.949768,341.016083 705.000183,340.999512 704.898010,340.782532 
	C704.513123,340.377136 704.230469,340.188721 703.947754,340.000305 
	C703.624268,339.969116 703.352539,339.833923 702.944336,339.111023 
	C702.434021,338.440063 702.111816,338.252747 701.789673,338.065430 
	C701.470459,338.060577 701.221497,337.925812 700.887451,337.174377 
	C700.396545,336.520203 700.061096,336.352844 699.725586,336.185486 
	C699.725586,336.185486 699.850464,336.153259 699.777771,335.930176 
	C699.380737,335.529266 699.056458,335.351379 698.732117,335.173492 
	C698.732117,335.173492 698.875854,335.148132 698.785278,334.913971 
	C698.145264,334.446533 697.595886,334.213257 697.046509,333.980042 
	C695.629761,333.924469 694.213074,333.868927 692.288940,333.599731 
	C691.460876,333.230194 691.210388,333.315826 691.030029,333.643066 
	C685.319397,333.715179 679.608704,333.787292 673.108826,333.565338 
	C672.159729,333.225281 671.999939,333.139404 671.840027,333.139069 
	C658.789124,333.110474 645.737915,333.050812 632.687927,333.149780 
	C631.804810,333.156494 630.930725,334.361847 630.052490,335.009766 
M643.934265,290.307251 
	C641.688965,290.649750 639.443665,290.992249 637.358887,291.310272 
	C637.358887,295.188446 637.358887,298.745941 637.358887,302.276978 
	C648.669678,302.276978 659.595459,302.276978 670.534546,302.276978 
	C670.534546,298.532806 670.534546,295.134674 670.534546,291.190582 
	C661.755432,290.848785 653.303772,290.519775 643.934265,290.307251 
z"/>
<path fill="#1A5199" opacity="1.000000" stroke="none" 
	d="
M793.424011,257.006348 
	C797.315857,253.378967 805.305725,252.502411 809.448792,255.514023 
	C810.401611,256.206635 810.907043,258.048492 810.946716,259.381470 
	C811.371460,273.646454 811.743530,287.914185 811.959351,302.183777 
	C812.107788,311.997253 812.236328,321.823792 811.878235,331.626434 
	C811.710999,336.203308 813.288940,337.272552 817.561890,337.101501 
	C825.534790,336.782227 833.540955,336.751282 841.510925,337.104797 
	C846.456543,337.324158 848.183411,335.863281 848.122314,330.692566 
	C847.862793,308.735107 847.935669,286.772156 848.115417,264.813110 
	C848.136475,262.247986 849.572815,259.694458 850.739014,257.106476 
	C850.612000,259.975464 849.671570,262.870972 849.654419,265.771942 
	C849.524475,287.750488 849.575562,309.730072 849.570312,331.709351 
	C849.569824,333.674988 849.570190,335.640625 849.570190,338.092529 
	C836.275940,338.092529 823.557983,338.092529 810.417297,338.092529 
	C810.417297,334.969238 810.432617,332.330780 810.414856,329.692535 
	C810.262329,307.053802 809.964844,284.414520 810.060974,261.776886 
	C810.080933,257.080902 808.159241,255.227585 804.040283,255.415176 
	C800.627747,255.570602 797.248413,256.454071 793.424011,257.006348 
z"/>
<path fill="#1A5199" opacity="1.000000" stroke="none" 
	d="
M781.007446,220.607056 
	C772.317566,214.813477 762.635498,216.558212 753.122681,218.164749 
	C751.538879,218.432220 749.213989,221.131104 749.186340,222.740082 
	C748.905457,239.046951 748.943665,255.361465 749.066040,271.672516 
	C749.200195,289.546875 749.517151,307.419861 749.516052,325.625732 
	C748.835083,308.357635 748.303284,290.758850 747.975769,273.156311 
	C747.669617,256.702759 747.579651,240.245193 747.395203,223.789398 
	C747.322998,217.342743 748.018250,216.474045 754.693787,216.145111 
	C760.501160,215.858948 766.329163,216.011932 772.140503,215.781174 
	C775.994995,215.628128 778.940125,216.901337 781.007446,220.607056 
z"/>
<path fill="#22569D" opacity="1.000000" stroke="none" 
	d="
M446.319214,212.498215 
	C446.974640,218.386887 447.877319,224.715714 447.907257,231.048691 
	C448.058105,262.977875 448.127930,294.909424 447.844269,326.836731 
	C447.795441,332.334961 448.621094,336.075745 454.765442,337.375305 
	C448.293030,337.742279 446.999359,336.634796 446.950592,330.123871 
	C446.657928,291.062897 446.420166,252.001526 446.319214,212.498215 
z"/>
<path fill="#1A5199" opacity="1.000000" stroke="none" 
	d="
M869.572205,259.671265 
	C870.130615,261.107147 870.928589,262.971741 870.936218,264.839569 
	C871.023865,286.138550 870.990967,307.438049 870.990234,328.737396 
	C870.990173,330.539307 870.990234,332.341187 870.990234,334.617340 
	C882.844116,336.660950 894.324158,336.601105 906.248535,334.995209 
	C905.552917,335.677429 904.457458,336.945526 903.348938,336.956970 
	C893.703003,337.056641 884.054810,336.922394 874.407227,336.876831 
	C870.799133,336.859772 869.275696,335.533722 869.312378,331.491058 
	C869.528137,307.696075 869.434326,283.898315 869.572205,259.671265 
z"/>
<path fill="#1A5199" opacity="1.000000" stroke="none" 
	d="
M908.842651,282.523315 
	C908.622620,272.388885 908.425537,261.807800 908.455139,251.227341 
	C908.478821,242.760406 908.948608,234.290710 908.773682,225.831482 
	C908.746948,224.540924 906.433960,222.396362 904.954956,222.181000 
	C894.006348,220.586731 883.018982,219.192032 872.004456,218.151886 
	C867.951538,217.769165 863.792419,218.512131 859.356934,218.506042 
	C875.195557,215.456818 891.019531,218.448761 906.806091,221.330704 
	C908.177246,221.581024 910.099854,224.211899 910.099121,225.736160 
	C910.091858,240.195938 909.742981,254.655960 909.447205,269.114990 
	C909.358826,273.437164 909.128723,277.756378 908.842651,282.523315 
z"/>
<path fill="#22569D" opacity="1.000000" stroke="none" 
	d="
M568.890015,236.589996 
	C568.518494,234.562332 567.926147,232.109772 568.096313,229.711288 
	C568.361084,225.979080 567.025269,224.871689 563.294189,224.899887 
	C542.030518,225.060669 520.765015,224.991074 499.500153,224.962021 
	C497.531738,224.959335 495.563660,224.692139 493.324341,224.234039 
	C516.416748,223.643509 539.782837,223.488586 563.141418,222.985107 
	C567.708740,222.886673 569.571655,224.196655 569.181458,228.743073 
	C568.969543,231.211853 569.058044,233.706406 568.890015,236.589996 
z"/>
<path fill="#194F98" opacity="1.000000" stroke="none" 
	d="
M571.371216,203.740433 
	C577.972168,201.240234 577.216736,195.441742 576.998962,189.877243 
	C576.667969,181.419693 576.205078,172.964218 576.069763,164.503510 
	C576.009705,160.754593 573.878418,160.144073 570.928223,159.996292 
	C565.696472,159.734222 560.468872,159.390289 555.106812,158.715729 
	C561.421814,158.552536 567.885254,158.569229 574.303833,159.114395 
	C575.564148,159.221436 577.642578,161.353088 577.665283,162.582047 
	C577.909790,175.808060 577.817627,189.040314 577.817627,202.769485 
	C575.890198,203.108063 573.828674,203.470215 571.371216,203.740433 
z"/>
<path fill="#194F98" opacity="1.000000" stroke="none" 
	d="
M716.884521,249.554245 
	C716.644592,242.771988 716.041809,235.511856 716.544617,228.329132 
	C716.940735,222.671448 716.984863,222.212021 711.109863,221.971497 
	C697.096313,221.397705 683.088501,220.676544 669.082031,219.946121 
	C667.966980,219.887970 666.879639,219.299026 665.489929,218.759308 
	C682.758484,219.300873 700.316467,220.039841 716.998352,220.741943 
	C716.998352,230.584366 716.998352,239.847061 716.884521,249.554245 
z"/>
<path fill="#1A5199" opacity="1.000000" stroke="none" 
	d="
M787.220459,338.351318 
	C787.619690,335.748413 788.873169,333.297913 788.913208,330.827698 
	C789.117249,318.254578 788.983154,305.676300 789.037659,293.100098 
	C789.044556,291.509430 789.464600,289.920563 790.025269,288.167969 
	C790.430969,303.728088 790.567078,319.451599 790.445801,335.173126 
	C790.437256,336.287750 788.536133,337.387817 787.220459,338.351318 
z"/>
<path fill="#22569D" opacity="1.000000" stroke="none" 
	d="
M495.272583,157.766052 
	C492.819580,154.850159 489.301666,154.811264 485.631775,154.955200 
	C475.591553,155.348938 465.544678,155.908081 455.505615,155.818481 
	C451.879974,155.786148 450.221680,157.725403 447.942078,159.946228 
	C447.283539,156.513519 448.805786,154.813614 452.410583,154.705292 
	C465.193573,154.321152 477.973755,153.843216 490.754395,153.383621 
	C493.580872,153.281982 495.179169,154.465088 495.272583,157.766052 
z"/>
<path fill="#1A5199" opacity="1.000000" stroke="none" 
	d="
M856.642334,218.754608 
	C852.877502,220.162643 848.760437,221.561600 844.617554,222.879547 
	C844.239929,222.999664 843.408386,222.727661 843.273743,222.423019 
	C840.974365,217.217224 836.340576,219.161758 832.552551,219.051514 
	C823.268677,218.781311 813.975891,218.818863 804.356201,218.488556 
	C816.064514,218.061966 828.103271,217.880173 840.141907,217.692581 
	C840.470642,217.687469 841.017578,217.480194 841.095398,217.602005 
	C845.670471,224.759033 851.187317,218.921463 856.642334,218.754608 
z"/>
<path fill="#22569D" opacity="1.000000" stroke="none" 
	d="
M447.088623,162.423386 
	C447.463074,162.930496 447.949036,163.862015 447.951843,164.794998 
	C447.994934,179.127441 447.982452,193.460098 447.945038,207.792618 
	C447.943420,208.409134 447.576996,209.024689 447.069824,209.834763 
	C446.782562,196.124664 446.800964,182.220474 446.835419,168.316345 
	C446.839935,166.493622 446.926697,164.671097 447.088623,162.423386 
z"/>
<path fill="#1A5199" opacity="1.000000" stroke="none" 
	d="
M906.915894,332.568939 
	C906.622559,323.925903 906.323303,314.862061 906.279663,305.797028 
	C906.259766,301.677765 906.691284,297.551575 907.028809,293.437622 
	C907.171692,291.695496 907.599426,289.976715 908.260132,288.113403 
	C908.086426,302.702179 907.550293,317.424927 906.915894,332.568939 
z"/>
<path fill="#22569D" opacity="1.000000" stroke="none" 
	d="
M486.210144,335.688232 
	C486.980774,326.347473 488.111420,316.752197 488.944427,307.131134 
	C489.476746,300.983521 489.568970,294.797760 490.114044,288.382935 
	C490.194366,299.922882 490.286987,311.722504 489.696075,323.487762 
	C489.494049,327.510376 487.577362,331.446899 486.210144,335.688232 
z"/>
<path fill="#104790" opacity="1.000000" stroke="none" 
	d="
M494.491760,204.059143 
	C495.759491,203.642365 497.483917,203.043655 499.210358,203.037720 
	C518.829041,202.970215 538.448059,202.993301 558.533020,203.207550 
	C558.999084,203.422958 558.992371,203.848587 558.992371,203.848587 
	C537.644714,203.949905 516.297058,204.051239 494.491760,204.059143 
z"/>
<path fill="#1A5199" opacity="1.000000" stroke="none" 
	d="
M749.339966,336.359070 
	C754.643616,336.311127 759.904907,336.739380 765.174683,336.987122 
	C770.955811,337.258881 776.744812,337.364197 782.803711,337.873474 
	C772.295776,338.120209 761.514343,338.050781 750.734009,337.900574 
	C750.251221,337.893829 749.778687,337.154022 749.339966,336.359070 
z"/>
<path fill="#22569D" opacity="1.000000" stroke="none" 
	d="
M555.406250,263.550781 
	C557.518921,262.667267 560.213562,262.160431 562.491699,260.900482 
	C563.977356,260.078796 565.599365,258.292419 565.874939,256.713806 
	C566.822571,251.285324 567.204468,245.758041 568.150574,240.123169 
	C568.188354,245.776291 567.847046,251.573227 567.577209,257.373505 
	C567.402466,261.130737 565.762085,263.128052 561.746948,262.987549 
	C559.778137,262.918640 557.790527,263.384155 555.406250,263.550781 
z"/>
<path fill="#194F98" opacity="1.000000" stroke="none" 
	d="
M544.502563,158.171661 
	C542.345459,158.527878 539.740479,158.815643 537.127869,158.985519 
	C526.883301,159.651733 516.641846,160.414291 506.386688,160.838730 
	C503.474091,160.959274 500.519073,160.054657 497.693909,159.333817 
	C498.834412,159.041519 499.864471,159.035599 500.894562,159.029678 
	C515.280151,158.702789 529.665710,158.375900 544.502563,158.171661 
z"/>
<path fill="#194F98" opacity="1.000000" stroke="none" 
	d="
M630.509521,335.093872 
	C630.930725,334.361847 631.804810,333.156494 632.687927,333.149780 
	C645.737915,333.050812 658.789124,333.110474 671.840027,333.139069 
	C671.999939,333.139404 672.159729,333.225281 672.641418,333.511597 
	C662.432556,334.217072 651.903198,334.716858 641.370361,335.127747 
	C637.907043,335.262878 634.434692,335.167847 630.509521,335.093872 
z"/>
<path fill="#22569D" opacity="1.000000" stroke="none" 
	d="
M492.360260,267.530579 
	C496.111877,266.664001 500.284149,265.434692 504.520294,265.147247 
	C509.764038,264.791382 515.060852,265.216736 520.662842,265.553619 
	C511.597107,266.397003 502.203156,266.991333 492.360260,267.530579 
z"/>
<path fill="#194F98" opacity="1.000000" stroke="none" 
	d="
M655.524048,218.136292 
	C655.375916,218.494644 654.772400,218.948547 654.169861,218.947357 
	C638.354614,218.915848 622.539490,218.837250 606.389771,218.534302 
	C622.393250,218.207855 638.731140,218.113831 655.524048,218.136292 
z"/>
<path fill="#194F98" opacity="1.000000" stroke="none" 
	d="
M714.884155,275.578613 
	C715.179443,268.644073 715.592224,261.306061 716.120422,253.653900 
	C715.824463,260.618195 715.413025,267.896698 714.884155,275.578613 
z"/>
<path fill="#194F98" opacity="1.000000" stroke="none" 
	d="
M714.706726,303.659668 
	C714.374023,303.703308 713.370911,303.365723 713.377136,303.047668 
	C713.520508,295.639496 711.292786,288.158691 714.118896,280.553986 
	C714.341919,287.950348 714.424194,295.618927 714.706726,303.659668 
z"/>
<path fill="#1A5199" opacity="1.000000" stroke="none" 
	d="
M796.431519,218.616989 
	C791.920532,219.843979 787.054626,220.954544 782.109497,221.743896 
	C786.712341,220.448639 791.394470,219.474594 796.431519,218.616989 
z"/>
<path fill="#22569D" opacity="1.000000" stroke="none" 
	d="
M538.409119,264.103638 
	C542.787354,263.790802 547.558899,263.540710 552.656860,263.537231 
	C548.256409,263.911346 543.529358,264.038849 538.409119,264.103638 
z"/>
<path fill="#22569D" opacity="1.000000" stroke="none" 
	d="
M465.481323,337.837463 
	C468.791046,337.474884 472.554962,337.305145 476.307678,336.998230 
	C479.254425,336.757294 482.187286,336.346832 485.547119,335.997986 
	C484.341858,336.677551 482.740082,337.889648 481.085114,337.967224 
	C476.044647,338.203491 470.983673,338.002136 465.481323,337.837463 
z"/>
<path fill="#22569D" opacity="1.000000" stroke="none" 
	d="
M524.545898,265.492065 
	C528.264160,264.952637 532.396851,264.498779 537.022583,264.112885 
	C533.330566,264.646393 529.145447,265.112000 524.545898,265.492065 
z"/>
<path fill="#194F98" opacity="1.000000" stroke="none" 
	d="
M603.673340,218.400818 
	C602.207581,220.541275 600.411987,222.617706 598.317139,224.820679 
	C599.793091,222.743729 601.568359,220.540253 603.673340,218.400818 
z"/>
<path fill="#22569D" opacity="1.000000" stroke="none" 
	d="
M490.866150,279.544495 
	C490.729614,276.078430 490.716064,272.177429 491.013458,268.081970 
	C491.212677,271.628204 491.100891,275.368896 490.866150,279.544495 
z"/>
<path fill="#194F98" opacity="1.000000" stroke="none" 
	d="
M723.332581,335.927124 
	C724.167969,334.410889 725.302673,332.759705 726.805542,331.118134 
	C725.993103,332.682556 724.812500,334.237366 723.332581,335.927124 
z"/>
<path fill="#1A5199" opacity="1.000000" stroke="none" 
	d="
M790.911499,263.649445 
	C791.299194,261.702484 791.792419,259.394409 792.643921,257.040588 
	C792.340515,259.092651 791.678772,261.190491 790.911499,263.649445 
z"/>
<path fill="#194F98" opacity="1.000000" stroke="none" 
	d="
M710.014709,345.396851 
	C711.322388,345.076050 712.783997,345.046234 714.683533,345.051758 
	C713.470520,345.287292 711.819580,345.487549 710.014709,345.396851 
z"/>
<path fill="#194F98" opacity="1.000000" stroke="none" 
	d="
M731.291016,325.812378 
	C730.679443,324.272461 730.342957,322.507782 730.011841,320.354614 
	C730.533569,321.839996 731.049805,323.713837 731.291016,325.812378 
z"/>
<path fill="#1A5199" opacity="1.000000" stroke="none" 
	d="
M851.412903,257.073059 
	C852.522888,256.522614 853.995056,255.917648 855.719543,255.534012 
	C854.572937,256.176392 853.174011,256.597443 851.412903,257.073059 
z"/>
<path fill="#194F98" opacity="1.000000" stroke="none" 
	d="
M723.056519,311.626892 
	C722.399475,311.190582 721.693665,310.439484 720.990662,309.323486 
	C721.664856,309.743073 722.336304,310.527588 723.056519,311.626892 
z"/>
<path fill="#1A5199" opacity="1.000000" stroke="none" 
	d="
M865.586792,256.492065 
	C866.526306,256.557465 867.688660,256.889099 868.923096,257.607178 
	C867.933289,257.581787 866.871460,257.170044 865.586792,256.492065 
z"/>
<path fill="#194F98" opacity="1.000000" stroke="none" 
	d="
M729.244263,328.811707 
	C729.426270,328.005280 729.883240,327.051086 730.685486,326.052979 
	C730.526855,326.894012 730.023071,327.778961 729.244263,328.811707 
z"/>
<path fill="#22569D" opacity="1.000000" stroke="none" 
	d="
M500.588928,158.896912 
	C499.864471,159.035599 498.834412,159.041519 497.417908,159.062241 
	C497.031525,159.077042 496.959686,158.775436 496.968323,158.620697 
	C498.079102,158.565369 499.181183,158.664749 500.588928,158.896912 
z"/>
<path fill="#194F98" opacity="1.000000" stroke="none" 
	d="
M719.711487,340.232422 
	C719.803955,339.645874 720.138550,338.898193 720.841919,338.152222 
	C720.791687,338.793091 720.372681,339.432220 719.711487,340.232422 
z"/>
<path fill="#194F98" opacity="1.000000" stroke="none" 
	d="
M725.182373,314.545532 
	C724.529419,314.094757 723.795166,313.339020 723.065552,312.238342 
	C723.747131,312.675751 724.424072,313.458160 725.182373,314.545532 
z"/>
<path fill="#194F98" opacity="1.000000" stroke="none" 
	d="
M729.048950,318.621582 
	C728.455688,318.461517 727.778564,318.008057 727.093506,317.210327 
	C727.712036,317.353485 728.338623,317.840820 729.048950,318.621582 
z"/>
<path fill="#22569D" opacity="1.000000" stroke="none" 
	d="
M460.396423,337.769592 
	C460.877991,337.532166 461.715118,337.401855 462.748596,337.465546 
	C462.213928,337.731934 461.482941,337.804321 460.396423,337.769592 
z"/>
<path fill="#1A5199" opacity="1.000000" stroke="none" 
	d="
M862.390198,255.838364 
	C862.921692,255.669174 863.809570,255.622986 864.847900,255.836243 
	C864.247803,256.050934 863.497131,256.006134 862.390198,255.838364 
z"/>
<path fill="#194F98" opacity="1.000000" stroke="none" 
	d="
M697.175720,334.241821 
	C697.595886,334.213257 698.145264,334.446533 698.767883,334.984863 
	C698.329041,335.027802 697.817017,334.765717 697.175720,334.241821 
z"/>
<path fill="#1A5199" opacity="1.000000" stroke="none" 
	d="
M858.428345,255.566528 
	C858.582642,255.353577 859.002319,255.223557 859.568359,255.190140 
	C859.374390,255.407639 859.034058,255.528549 858.428345,255.566528 
z"/>
<path fill="#194F98" opacity="1.000000" stroke="none" 
	d="
M717.311157,342.966034 
	C717.306213,342.516449 717.565979,341.954681 718.159973,341.406921 
	C718.188110,341.898590 717.882019,342.376221 717.311157,342.966034 
z"/>
<path fill="#194F98" opacity="1.000000" stroke="none" 
	d="
M559.323120,203.915497 
	C558.992371,203.848587 558.999084,203.422958 559.001953,203.210098 
	C559.531250,203.104736 560.057617,203.212234 560.773438,203.515137 
	C560.526489,203.801147 560.090149,203.891785 559.323120,203.915497 
z"/>
<path fill="#194F98" opacity="1.000000" stroke="none" 
	d="
M708.457886,344.142700 
	C708.794556,344.155487 709.273071,344.395081 709.839722,344.897919 
	C709.485107,344.897308 709.042419,344.633392 708.457886,344.142700 
z"/>
<path fill="#194F98" opacity="1.000000" stroke="none" 
	d="
M716.660461,304.853424 
	C716.308228,304.899109 715.798767,304.713684 715.139038,304.295959 
	C715.493591,304.249908 715.998413,304.436096 716.660461,304.853424 
z"/>
<path fill="#194F98" opacity="1.000000" stroke="none" 
	d="
M706.084839,342.230347 
	C706.329285,342.053497 706.600037,342.214508 706.919373,342.692505 
	C706.743591,342.759430 706.457947,342.612335 706.084839,342.230347 
z"/>
<path fill="#194F98" opacity="1.000000" stroke="none" 
	d="
M722.340576,337.067200 
	C722.245850,336.849304 722.410461,336.543091 722.819946,336.128845 
	C722.909790,336.340118 722.754822,336.659485 722.340576,337.067200 
z"/>
<path fill="#194F98" opacity="1.000000" stroke="none" 
	d="
M705.028015,341.269409 
	C705.231689,341.190552 705.513672,341.364990 705.900513,341.770569 
	C705.705688,341.842010 705.405945,341.682373 705.028015,341.269409 
z"/>
<path fill="#194F98" opacity="1.000000" stroke="none" 
	d="
M718.692993,341.328064 
	C718.585205,341.082428 718.700623,340.733795 719.121460,340.396118 
	C719.369141,340.749908 719.198914,341.022552 718.692993,341.328064 
z"/>
<path fill="#194F98" opacity="1.000000" stroke="none" 
	d="
M716.348877,344.073853 
	C716.255859,343.856384 716.421692,343.548645 716.835205,343.134888 
	C716.924561,343.347107 716.766174,343.665344 716.348877,344.073853 
z"/>
<path fill="#194F98" opacity="1.000000" stroke="none" 
	d="
M704.020935,340.258698 
	C704.230469,340.188721 704.513123,340.377136 704.890442,340.807983 
	C704.688049,340.872620 704.391113,340.694855 704.020935,340.258698 
z"/>
<path fill="#194F98" opacity="1.000000" stroke="none" 
	d="
M715.332397,345.066681 
	C715.256409,344.836151 715.448608,344.538116 715.903931,344.163208 
	C715.978271,344.390564 715.789429,344.694855 715.332397,345.066681 
z"/>
<path fill="#194F98" opacity="1.000000" stroke="none" 
	d="
M719.988892,307.734802 
	C719.777710,307.807220 719.489197,307.618805 719.101807,307.185486 
	C719.305847,307.118378 719.608643,307.296173 719.988892,307.734802 
z"/>
<path fill="#194F98" opacity="1.000000" stroke="none" 
	d="
M701.889465,338.335693 
	C702.111816,338.252747 702.434021,338.440063 702.857056,338.896362 
	C702.635071,338.978851 702.312134,338.792389 701.889465,338.335693 
z"/>
<path fill="#194F98" opacity="1.000000" stroke="none" 
	d="
M721.394348,338.118591 
	C721.303772,337.900909 721.466614,337.578979 721.894775,337.165833 
	C721.989319,337.387848 721.818542,337.701080 721.394348,338.118591 
z"/>
<path fill="#194F98" opacity="1.000000" stroke="none" 
	d="
M699.825317,336.452850 
	C700.061096,336.352844 700.396545,336.520203 700.822876,336.964691 
	C700.584106,337.067993 700.254639,336.894104 699.825317,336.452850 
z"/>
<path fill="#194F98" opacity="1.000000" stroke="none" 
	d="
M717.918884,305.775513 
	C717.679626,305.960175 717.408264,305.810120 717.069824,305.359161 
	C717.243164,305.283875 717.537842,305.411377 717.918884,305.775513 
z"/>
<path fill="#194F98" opacity="1.000000" stroke="none" 
	d="
M698.813293,335.439819 
	C699.056458,335.351379 699.380737,335.529266 699.760315,335.992249 
	C699.508545,336.086975 699.201477,335.896576 698.813293,335.439819 
z"/>
<path fill="#194F98" opacity="1.000000" stroke="none" 
	d="
M691.264343,333.728821 
	C691.210388,333.315826 691.460876,333.230194 691.872925,333.510620 
	C691.964417,333.635162 691.498657,333.814545 691.264343,333.728821 
z"/>
<path fill="#194F98" opacity="1.000000" stroke="none" 
	d="
M726.083374,315.661377 
	C725.853638,315.722107 725.554932,315.514252 725.209595,315.026672 
	C725.446838,314.962250 725.730652,315.177551 726.083374,315.661377 
z"/>
<path fill="#194F98" opacity="1.000000" stroke="none" 
	d="
M727.367737,331.084717 
	C727.272827,330.870453 727.432312,330.556732 727.842896,330.138550 
	C727.936707,330.351166 727.779419,330.668213 727.367737,331.084717 
z"/>
<path fill="#194F98" opacity="1.000000" stroke="none" 
	d="
M728.291016,330.002747 
	C728.197449,329.801880 728.353394,329.508789 728.733887,329.096313 
	C728.819153,329.288116 728.679810,329.599335 728.291016,330.002747 
z"/>
<path fill="#194F98" opacity="1.000000" stroke="none" 
	d="
M727.063110,316.670013 
	C726.837769,316.748047 726.536377,316.560028 726.152588,316.110168 
	C726.375793,316.033539 726.681396,316.218750 727.063110,316.670013 
z"/>
<path fill="#194F98" opacity="1.000000" stroke="none" 
	d="
M729.987671,319.720184 
	C729.758118,319.782257 729.484375,319.574982 729.140198,319.113190 
	C729.360962,319.056061 729.652222,319.253448 729.987671,319.720184 
z"/>
<path fill="#EFF4FA" opacity="1.000000" stroke="none" 
	d="
M301.838196,292.127045 
	C304.864319,292.003204 306.360901,292.803528 306.074280,295.802338 
	C305.843018,298.221741 306.027435,300.680939 306.027435,303.271820 
	C294.533539,303.271820 283.516937,303.271820 272.315338,303.271820 
	C272.315338,299.519836 272.315338,296.087646 272.315338,292.124176 
	C282.073669,292.124176 291.727966,292.124176 301.838196,292.127045 
z"/>
<path fill="#EBF4FA" opacity="1.000000" stroke="none" 
	d="
M644.393188,290.248993 
	C653.303772,290.519775 661.755432,290.848785 670.534546,291.190582 
	C670.534546,295.134674 670.534546,298.532806 670.534546,302.276978 
	C659.595459,302.276978 648.669678,302.276978 637.358887,302.276978 
	C637.358887,298.745941 637.358887,295.188446 637.358887,291.310272 
	C639.443665,290.992249 641.688965,290.649750 644.393188,290.248993 
z"/>
</svg>